<svg width="173" height="173" viewBox="0 0 173 173" fill="none" xmlns="http://www.w3.org/2000/svg">
    <g clip-path="url(#clip0_2184_187)">
        <path
            d="M75.6862 144.167C75.6862 147.035 76.8254 149.785 78.8531 151.813C80.8808 153.841 83.631 154.98 86.4987 154.98C89.3663 154.98 92.1166 153.841 94.1443 151.813C96.172 149.785 97.3112 147.035 97.3112 144.167V97.3131H144.165C147.033 97.3131 149.783 96.174 151.811 94.1462C153.839 92.1185 154.978 89.3683 154.978 86.5006C154.978 83.633 153.839 80.8828 151.811 78.8551C149.783 76.8273 147.033 75.6881 144.165 75.6881H97.3112V28.834C97.3112 25.9663 96.172 23.2161 94.1443 21.1884C92.1166 19.1607 89.3663 18.0215 86.4987 18.0215C83.631 18.0215 80.8808 19.1607 78.8531 21.1884C76.8254 23.2161 75.6862 25.9663 75.6862 28.834V75.6881H28.832C25.9644 75.6881 23.2142 76.8273 21.1864 78.8551C19.1587 80.8828 18.0195 83.633 18.0195 86.5006C18.0195 89.3683 19.1587 92.1185 21.1864 94.1462C23.2142 96.174 25.9644 97.3131 28.832 97.3131H75.6862V144.167Z"
            fill="black" />
    </g>
    <defs>
        <clipPath id="clip0_2184_187">
            <rect width="173" height="173" fill="white" />
        </clipPath>
    </defs>
</svg>
    