<svg width="91" height="102" viewBox="0 0 91 102" fill="none" xmlns="http://www.w3.org/2000/svg">
    <path
        d="M3.9723 98H1.44105L6.04972 84.9091H8.97727L13.5923 98H11.0611L7.56463 87.5938H7.46236L3.9723 98ZM4.0554 92.8672H10.9588V94.772H4.0554V92.8672ZM17.8389 98.1726C17.0676 98.1726 16.3773 97.9744 15.7679 97.5781C15.1586 97.1818 14.677 96.6065 14.3233 95.8523C13.9696 95.098 13.7928 94.1818 13.7928 93.1037C13.7928 92.0128 13.9718 91.0923 14.3297 90.3423C14.6919 89.5881 15.1799 89.0192 15.7935 88.6357C16.4071 88.2479 17.0911 88.054 17.8453 88.054C18.4206 88.054 18.8936 88.152 19.2644 88.348C19.6351 88.5398 19.9291 88.772 20.1465 89.0447C20.3638 89.3132 20.5321 89.5668 20.6514 89.8054H20.7473V84.9091H23.0676V98H20.7921V96.4531H20.6514C20.5321 96.6918 20.3595 96.9453 20.1337 97.2138C19.9078 97.478 19.6095 97.7038 19.2388 97.8913C18.8681 98.0788 18.4014 98.1726 17.8389 98.1726ZM18.4845 96.2741C18.9746 96.2741 19.3922 96.142 19.7374 95.8778C20.0826 95.6094 20.3446 95.2365 20.5236 94.7592C20.7026 94.282 20.7921 93.7259 20.7921 93.0909C20.7921 92.456 20.7026 91.9041 20.5236 91.4354C20.3489 90.9666 20.0889 90.6023 19.7438 90.3423C19.4029 90.0824 18.9831 89.9524 18.4845 89.9524C17.9689 89.9524 17.5385 90.0866 17.1934 90.3551C16.8482 90.6236 16.5882 90.9943 16.4135 91.4673C16.2388 91.9403 16.1514 92.4815 16.1514 93.0909C16.1514 93.7045 16.2388 94.2521 16.4135 94.7337C16.5925 95.2109 16.8546 95.5881 17.1997 95.8651C17.5492 96.1378 17.9774 96.2741 18.4845 96.2741ZM28.4568 98.1726C27.6855 98.1726 26.9952 97.9744 26.3858 97.5781C25.7764 97.1818 25.2949 96.6065 24.9412 95.8523C24.5875 95.098 24.4107 94.1818 24.4107 93.1037C24.4107 92.0128 24.5897 91.0923 24.9476 90.3423C25.3098 89.5881 25.7977 89.0192 26.4114 88.6357C27.025 88.2479 27.709 88.054 28.4632 88.054C29.0385 88.054 29.5115 88.152 29.8823 88.348C30.253 88.5398 30.547 88.772 30.7644 89.0447C30.9817 89.3132 31.15 89.5668 31.2693 89.8054H31.3652V84.9091H33.6855V98H31.41V96.4531H31.2693C31.15 96.6918 30.9774 96.9453 30.7516 97.2138C30.5257 97.478 30.2274 97.7038 29.8567 97.8913C29.486 98.0788 29.0193 98.1726 28.4568 98.1726ZM29.1024 96.2741C29.5925 96.2741 30.0101 96.142 30.3553 95.8778C30.7004 95.6094 30.9625 95.2365 31.1415 94.7592C31.3205 94.282 31.41 93.7259 31.41 93.0909C31.41 92.456 31.3205 91.9041 31.1415 91.4354C30.9668 90.9666 30.7068 90.6023 30.3617 90.3423C30.0208 90.0824 29.601 89.9524 29.1024 89.9524C28.5868 89.9524 28.1564 90.0866 27.8112 90.3551C27.4661 90.6236 27.2061 90.9943 27.0314 91.4673C26.8567 91.9403 26.7693 92.4815 26.7693 93.0909C26.7693 93.7045 26.8567 94.2521 27.0314 94.7337C27.2104 95.2109 27.4725 95.5881 27.8176 95.8651C28.1671 96.1378 28.5953 96.2741 29.1024 96.2741ZM40.9595 98H38.4282L43.0369 84.9091H45.9645L50.5795 98H48.0483L44.5518 87.5938H44.4495L40.9595 98ZM41.0426 92.8672H47.946V94.772H41.0426V92.8672ZM54.8261 98.1726C54.0548 98.1726 53.3645 97.9744 52.7551 97.5781C52.1457 97.1818 51.6642 96.6065 51.3105 95.8523C50.9568 95.098 50.78 94.1818 50.78 93.1037C50.78 92.0128 50.959 91.0923 51.3169 90.3423C51.6791 89.5881 52.167 89.0192 52.7807 88.6357C53.3943 88.2479 54.0783 88.054 54.8325 88.054C55.4078 88.054 55.8808 88.152 56.2516 88.348C56.6223 88.5398 56.9163 88.772 57.1337 89.0447C57.351 89.3132 57.5193 89.5668 57.6386 89.8054H57.7345V84.9091H60.0548V98H57.7793V96.4531H57.6386C57.5193 96.6918 57.3467 96.9453 57.1209 97.2138C56.895 97.478 56.5967 97.7038 56.226 97.8913C55.8553 98.0788 55.3886 98.1726 54.8261 98.1726ZM55.4717 96.2741C55.9618 96.2741 56.3794 96.142 56.7246 95.8778C57.0697 95.6094 57.3318 95.2365 57.5108 94.7592C57.6898 94.282 57.7793 93.7259 57.7793 93.0909C57.7793 92.456 57.6898 91.9041 57.5108 91.4354C57.3361 90.9666 57.0761 90.6023 56.731 90.3423C56.3901 90.0824 55.9703 89.9524 55.4717 89.9524C54.9561 89.9524 54.5257 90.0866 54.1805 90.3551C53.8354 90.6236 53.5754 90.9943 53.4007 91.4673C53.226 91.9403 53.1386 92.4815 53.1386 93.0909C53.1386 93.7045 53.226 94.2521 53.4007 94.7337C53.5797 95.2109 53.8418 95.5881 54.1869 95.8651C54.5364 96.1378 54.9646 96.2741 55.4717 96.2741ZM61.8006 98V88.1818H64.0122V89.8501H64.1273C64.3318 89.2876 64.6706 88.8487 65.1436 88.5334C65.6166 88.2138 66.1812 88.054 66.8375 88.054C67.5023 88.054 68.0626 88.2159 68.5186 88.5398C68.9788 88.8594 69.3027 89.2962 69.4902 89.8501H69.5925C69.8098 89.3047 70.1763 88.87 70.6919 88.5462C71.2118 88.218 71.8276 88.054 72.5392 88.054C73.4426 88.054 74.1798 88.3395 74.7508 88.9105C75.3219 89.4815 75.6074 90.3146 75.6074 91.4098V98H73.2871V91.7678C73.2871 91.1584 73.1251 90.7131 72.8013 90.4318C72.4774 90.1463 72.0811 90.0036 71.6124 90.0036C71.0541 90.0036 70.6173 90.1783 70.302 90.5277C69.9909 90.8729 69.8354 91.3224 69.8354 91.8764V98H67.5662V91.6719C67.5662 91.1648 67.4128 90.7599 67.106 90.4574C66.8034 90.1548 66.4071 90.0036 65.917 90.0036C65.5847 90.0036 65.2821 90.0888 65.0094 90.2592C64.7366 90.4254 64.5193 90.6619 64.3574 90.9688C64.1954 91.2713 64.1145 91.625 64.1145 92.0298V98H61.8006ZM77.2349 98V88.1818H79.5488V98H77.2349ZM78.3982 86.7884C78.0317 86.7884 77.7164 86.6669 77.4522 86.424C77.188 86.1768 77.0559 85.8807 77.0559 85.5355C77.0559 85.1861 77.188 84.8899 77.4522 84.647C77.7164 84.3999 78.0317 84.2763 78.3982 84.2763C78.7689 84.2763 79.0843 84.3999 79.3442 84.647C79.6084 84.8899 79.7405 85.1861 79.7405 85.5355C79.7405 85.8807 79.6084 86.1768 79.3442 86.424C79.0843 86.6669 78.7689 86.7884 78.3982 86.7884ZM83.5221 92.2472V98H81.2082V88.1818H83.4199V89.8501H83.5349C83.7608 89.3004 84.1209 88.8636 84.6152 88.5398C85.1138 88.2159 85.7295 88.054 86.4625 88.054C87.14 88.054 87.7302 88.1989 88.2331 88.4886C88.7402 88.7784 89.1322 89.1982 89.4092 89.7479C89.6905 90.2976 89.829 90.9645 89.8247 91.7486V98H87.5108V92.1065C87.5108 91.4503 87.3403 90.9368 86.9994 90.5661C86.6628 90.1953 86.1961 90.0099 85.5996 90.0099C85.1947 90.0099 84.8346 90.0994 84.5193 90.2784C84.2082 90.4531 83.9632 90.7067 83.7842 91.0391C83.6095 91.3714 83.5221 91.7741 83.5221 92.2472Z"
        fill="black" />
    <path
        d="M38.5375 44.9621V51.3851C33.4271 51.3851 28.526 53.4152 24.9124 57.0288C21.2988 60.6424 19.2687 65.5435 19.2687 70.6539H12.8457C12.8457 63.84 15.5525 57.3052 20.3707 52.4871C25.1888 47.6689 31.7236 44.9621 38.5375 44.9621ZM38.5375 41.7506C27.8915 41.7506 19.2687 33.1278 19.2687 22.4818C19.2687 11.8357 27.8915 3.21289 38.5375 3.21289C49.1836 3.21289 57.8064 11.8357 57.8064 22.4818C57.8064 33.1278 49.1836 41.7506 38.5375 41.7506ZM38.5375 35.3277C45.6349 35.3277 51.3834 29.5791 51.3834 22.4818C51.3834 15.3844 45.6349 9.63585 38.5375 9.63585C31.4402 9.63585 25.6916 15.3844 25.6916 22.4818C25.6916 29.5791 31.4402 35.3277 38.5375 35.3277ZM67.4408 54.5965H70.6523V70.6539H44.9605V54.5965H48.172V51.3851C48.172 48.8298 49.187 46.3793 50.9938 44.5725C52.8006 42.7657 55.2512 41.7506 57.8064 41.7506C60.3616 41.7506 62.8122 42.7657 64.619 44.5725C66.4258 46.3793 67.4408 48.8298 67.4408 51.3851V54.5965ZM61.0179 54.5965V51.3851C61.0179 50.5333 60.6795 49.7165 60.0773 49.1142C59.475 48.5119 58.6581 48.1736 57.8064 48.1736C56.9547 48.1736 56.1378 48.5119 55.5355 49.1142C54.9333 49.7165 54.5949 50.5333 54.5949 51.3851V54.5965H61.0179Z"
        fill="black" />
    <g clip-path="url(#clip0_3176_321)">
        <path
            d="M75.0472 44.6219C75.0472 44.9447 75.1754 45.2542 75.4037 45.4825C75.6319 45.7107 75.9414 45.8389 76.2642 45.8389C76.587 45.8389 76.8965 45.7107 77.1247 45.4825C77.353 45.2542 77.4812 44.9447 77.4812 44.6219V39.3484H82.7548C83.0775 39.3484 83.3871 39.2201 83.6153 38.9919C83.8435 38.7637 83.9717 38.4541 83.9717 38.1314C83.9717 37.8086 83.8435 37.4991 83.6153 37.2708C83.3871 37.0426 83.0775 36.9144 82.7548 36.9144H77.4812V31.6408C77.4812 31.318 77.353 31.0085 77.1247 30.7803C76.8965 30.552 76.587 30.4238 76.2642 30.4238C75.9414 30.4238 75.6319 30.552 75.4037 30.7803C75.1754 31.0085 75.0472 31.318 75.0472 31.6408V36.9144H69.7736C69.4509 36.9144 69.1413 37.0426 68.9131 37.2708C68.6849 37.4991 68.5566 37.8086 68.5566 38.1314C68.5566 38.4541 68.6849 38.7637 68.9131 38.9919C69.1413 39.2201 69.4509 39.3484 69.7736 39.3484H75.0472V44.6219Z"
            fill="black" />
    </g>
    <defs>
        <clipPath id="clip0_3176_321">
            <rect width="19.4717" height="19.4717" fill="white"
                transform="translate(66.5273 28.3965)" />
        </clipPath>
    </defs>
</svg>
    