<svg width="24" height="24" viewBox="0 0 24 24" fill="none" xmlns="http://www.w3.org/2000/svg">
    <path fill-rule="evenodd" clip-rule="evenodd"
        d="M7.34467 4.01697C10.4385 3.67403 13.5608 3.67403 16.6547 4.01697C18.3677 4.20897 19.7497 5.55797 19.9507 7.27697C20.3177 10.4149 20.3177 13.585 19.9507 16.723C19.7497 18.442 18.3677 19.791 16.6547 19.983C13.5608 20.326 10.4385 20.326 7.34467 19.983C5.63167 19.791 4.24967 18.442 4.04867 16.723C3.68169 13.5853 3.68169 10.4156 4.04867 7.27797C4.15034 6.44284 4.53105 5.66651 5.12911 5.07481C5.72716 4.48311 6.50751 4.11071 7.34367 4.01797M11.9997 7.00697C12.1986 7.00697 12.3894 7.08599 12.53 7.22664C12.6707 7.36729 12.7497 7.55806 12.7497 7.75697V11.25H16.2427C16.4416 11.25 16.6324 11.329 16.773 11.4696C16.9137 11.6103 16.9927 11.8011 16.9927 12C16.9927 12.1989 16.9137 12.3896 16.773 12.5303C16.6324 12.671 16.4416 12.75 16.2427 12.75H12.7497V16.243C12.7497 16.4419 12.6707 16.6326 12.53 16.7733C12.3894 16.914 12.1986 16.993 11.9997 16.993C11.8008 16.993 11.61 16.914 11.4693 16.7733C11.3287 16.6326 11.2497 16.4419 11.2497 16.243V12.75H7.75667C7.55776 12.75 7.367 12.671 7.22634 12.5303C7.08569 12.3896 7.00667 12.1989 7.00667 12C7.00667 11.8011 7.08569 11.6103 7.22634 11.4696C7.367 11.329 7.55776 11.25 7.75667 11.25H11.2497V7.75697C11.2497 7.55806 11.3287 7.36729 11.4693 7.22664C11.61 7.08599 11.8008 7.00697 11.9997 7.00697Z"
        fill="white" />
</svg>
    