<svg width="307" height="307" viewBox="0 0 307 307" fill="none" xmlns="http://www.w3.org/2000/svg">
    <path
        d="M242.355 165.823C246.691 165.823 250.901 166.333 255.11 166.971V127.556C255.11 120.791 252.422 114.302 247.638 109.518C242.854 104.733 236.365 102.046 229.599 102.046H216.844V76.5349C216.844 41.3299 188.272 12.7578 153.067 12.7578C117.862 12.7578 89.2897 41.3299 89.2897 76.5349V102.046H76.5343C69.7684 102.046 63.2796 104.733 58.4954 109.518C53.7112 114.302 51.0234 120.791 51.0234 127.556V255.111C51.0234 269.269 62.3758 280.621 76.5343 280.621H176.154C169.649 269.397 165.822 256.386 165.822 242.355C165.822 200.135 200.134 165.823 242.355 165.823ZM114.8 76.5349C114.8 55.3609 131.893 38.2686 153.067 38.2686C174.241 38.2686 191.333 55.3609 191.333 76.5349V102.046H114.8V76.5349ZM153.067 216.844C148.021 216.844 143.089 215.348 138.894 212.545C134.698 209.742 131.429 205.758 129.498 201.096C127.567 196.435 127.062 191.305 128.046 186.357C129.03 181.408 131.46 176.862 135.028 173.295C138.596 169.727 143.141 167.297 148.09 166.313C153.038 165.329 158.168 165.834 162.829 167.765C167.491 169.695 171.475 172.965 174.278 177.16C177.081 181.356 178.578 186.288 178.578 191.334C178.578 205.492 167.225 216.844 153.067 216.844ZM293.376 229.6V255.111H255.11V293.377H229.599V255.111H191.333V229.6H229.599V191.334H255.11V229.6H293.376Z"
        fill="#790000" />
</svg>
    