<svg width="27" height="27" viewBox="0 0 27 27" fill="none" xmlns="http://www.w3.org/2000/svg">
    <path
        d="M13.5283 25.411C7.52359 24.0765 2.72266 18.4112 2.72266 12.4443V5.96092L13.5283 1.63867L24.3339 5.96092V12.4443C24.3339 18.4133 19.533 24.0765 13.5283 25.411ZM4.88378 7.04148V12.4443C4.94553 14.9427 5.82426 17.352 7.38547 19.3035C8.94669 21.2551 11.1044 22.6412 13.5283 23.2499C15.9522 22.6412 18.1099 21.2551 19.6711 19.3035C21.2323 17.352 22.111 14.9427 22.1728 12.4443V7.04148L13.5283 3.7998L4.88378 7.04148Z"
        fill="#790000" />
    <path
        d="M13.5295 12.4438C15.0215 12.4438 16.2309 11.2344 16.2309 9.74242C16.2309 8.25048 15.0215 7.04102 13.5295 7.04102C12.0376 7.04102 10.8281 8.25048 10.8281 9.74242C10.8281 11.2344 12.0376 12.4438 13.5295 12.4438Z"
        fill="#790000" />
    <path
        d="M8.125 16.7671C8.6576 17.7376 9.43852 18.5493 10.3878 19.1188C11.3372 19.6884 12.4208 19.9956 13.5278 20.0088C14.6348 19.9956 15.7184 19.6884 16.6678 19.1188C17.6171 18.5493 18.398 17.7376 18.9306 16.7671C18.9036 14.7183 15.3194 13.5254 13.5278 13.5254C11.7265 13.5254 8.15201 14.7183 8.125 16.7671Z"
        fill="#790000" />
</svg>
    