<svg width="13" height="13" viewBox="0 0 13 13" fill="none" xmlns="http://www.w3.org/2000/svg">
    <path fill-rule="evenodd" clip-rule="evenodd"
        d="M10.1375 9.51394C10.5691 9.08222 10.8116 8.49673 10.8116 7.88623C10.8116 7.27573 10.5691 6.69024 10.1375 6.25852L6.59496 2.71602C6.49333 2.61445 6.4362 2.47667 6.43615 2.33298C6.4361 2.1893 6.49313 2.05147 6.59469 1.94983C6.69626 1.8482 6.83404 1.79107 6.97773 1.79102C7.12142 1.79096 7.25924 1.848 7.36088 1.94956L10.9034 5.49206C11.5384 6.12689 11.8951 6.98796 11.8952 7.88585C11.8953 8.78373 11.5388 9.64488 10.9039 10.2799C10.2691 10.9148 9.40802 11.2716 8.51014 11.2717C7.61225 11.2718 6.7511 10.9152 6.11613 10.2804L1.80771 5.97144C1.35052 5.51417 1.0937 4.89401 1.09375 4.24739C1.0938 3.60077 1.35072 2.98065 1.80799 2.52346C2.26525 2.06626 2.88541 1.80944 3.53203 1.80949C4.17865 1.80955 4.79877 2.06646 5.25596 2.52373L9.56384 6.8316C9.83661 7.11254 9.98789 7.48953 9.98498 7.88109C9.98207 8.27266 9.8252 8.64736 9.54828 8.92421C9.27136 9.20106 8.89662 9.35783 8.50505 9.36064C8.11349 9.36345 7.73654 9.21208 7.45567 8.93923L3.53076 5.01377C3.42912 4.9122 3.37199 4.77442 3.37194 4.63073C3.37189 4.48705 3.42892 4.34922 3.53049 4.24758C3.63205 4.14595 3.76983 4.08882 3.91352 4.08877C4.05721 4.08872 4.19503 4.14575 4.29667 4.24731L8.22213 8.17277C8.29841 8.24913 8.4019 8.29205 8.50984 8.2921C8.61777 8.29215 8.7213 8.24933 8.79765 8.17304C8.87401 8.09676 8.91693 7.99327 8.91698 7.88534C8.91703 7.77741 8.87421 7.67388 8.79792 7.59752L4.49005 3.28965C4.36429 3.16381 4.21497 3.06398 4.05063 2.99585C3.88628 2.92773 3.71013 2.89263 3.53222 2.89258C3.35432 2.89253 3.17814 2.92753 3.01376 2.99556C2.84938 3.0636 2.70001 3.16334 2.57417 3.2891C2.32004 3.54309 2.17721 3.88763 2.17711 4.24693C2.17701 4.60623 2.31964 4.95085 2.57363 5.20498L6.88205 9.5134C7.31376 9.94505 7.89926 10.1876 8.50976 10.1876C9.12025 10.1876 9.70575 9.94505 10.1375 9.5134V9.51394Z"
        fill="white" />
</svg>
    