<svg width="16" height="16" viewBox="0 0 16 16" fill="none" xmlns="http://www.w3.org/2000/svg">
    <g clip-path="url(#clip0_624_25)">
    <path d="M8.4 1.46732C8.2846 1.38077 8.14425 1.33398 8 1.33398C7.85575 1.33398 7.7154 1.38077 7.6 1.46732C7.32205 1.67985 7.06591 1.91947 6.83533 2.18265C6.48667 2.57532 6 3.23732 6 4.00065C6 4.53108 6.21071 5.03979 6.58579 5.41486C6.96086 5.78994 7.46957 6.00065 8 6.00065H4C3.46957 6.00065 2.96086 6.21136 2.58579 6.58644C2.21071 6.96151 2 7.47022 2 8.00065V9.33398C2 10.158 2.94067 10.6287 3.6 10.134L4.04467 9.80065C4.16006 9.7141 4.30042 9.66732 4.44467 9.66732C4.58891 9.66732 4.72927 9.7141 4.84467 9.80065L5.022 9.93398C5.36819 10.1936 5.78926 10.334 6.222 10.334C6.65474 10.334 7.07581 10.1936 7.422 9.93398L7.6 9.80065C7.7154 9.7141 7.85575 9.66732 8 9.66732C8.14425 9.66732 8.2846 9.7141 8.4 9.80065L8.578 9.93398C8.92419 10.1936 9.34526 10.334 9.778 10.334C10.2107 10.334 10.6318 10.1936 10.978 9.93398L11.1553 9.80065C11.2707 9.7141 11.4111 9.66732 11.5553 9.66732C11.6996 9.66732 11.8399 9.7141 11.9553 9.80065L12.4 10.134C13.0593 10.6287 14 10.158 14 9.33398V8.00065C14 7.47022 13.7893 6.96151 13.4142 6.58644C13.0391 6.21136 12.5304 6.00065 12 6.00065H8C8.53043 6.00065 9.03914 5.78994 9.41421 5.41486C9.78929 5.03979 10 4.53108 10 4.00065C10 3.23732 9.51333 2.57532 9.16467 2.18265C8.934 1.92265 8.678 1.67598 8.4 1.46732ZM2.66667 11.6107V13.334C2.66667 13.6876 2.80714 14.0267 3.05719 14.2768C3.30724 14.5268 3.64638 14.6673 4 14.6673H12C12.3536 14.6673 12.6928 14.5268 12.9428 14.2768C13.1929 14.0267 13.3333 13.6876 13.3333 13.334V11.6107C13.1782 11.6669 13.0114 11.6832 12.8484 11.6582C12.6853 11.6331 12.5311 11.5675 12.4 11.4673L11.9553 11.134C11.8399 11.0474 11.6996 11.0007 11.5553 11.0007C11.4111 11.0007 11.2707 11.0474 11.1553 11.134L10.978 11.2673C10.6318 11.527 10.2107 11.6673 9.778 11.6673C9.34526 11.6673 8.92419 11.527 8.578 11.2673L8.4 11.134C8.2846 11.0474 8.14425 11.0007 8 11.0007C7.85575 11.0007 7.7154 11.0474 7.6 11.134L7.422 11.2673C7.07581 11.527 6.65474 11.6673 6.222 11.6673C5.78926 11.6673 5.36819 11.527 5.022 11.2673L4.84467 11.134C4.72927 11.0474 4.58891 11.0007 4.44467 11.0007C4.30042 11.0007 4.16006 11.0474 4.04467 11.134L3.6 11.4673C3.4689 11.5675 3.31472 11.6331 3.15164 11.6582C2.98855 11.6832 2.82179 11.6669 2.66667 11.6107Z" fill="#E60000"/>
    </g>
    <defs>
    <clipPath id="clip0_624_25">
    <rect width="16" height="16" fill="white"/>
    </clipPath>
    </defs>
    </svg>
    