<svg width="22" height="21" viewBox="0 0 22 21" fill="none" xmlns="http://www.w3.org/2000/svg">
<g id="bx:support">
<path id="Vector" d="M11.1013 1.75391C6.3844 1.75391 2.54688 5.59143 2.54688 10.3084V13.8525C2.54688 14.7284 3.31421 15.441 4.25776 15.441H5.11321C5.34009 15.441 5.55767 15.3509 5.7181 15.1905C5.87853 15.03 5.96865 14.8125 5.96865 14.5856V10.186C5.96865 9.95915 5.87853 9.74156 5.7181 9.58113C5.55767 9.42071 5.34009 9.33058 5.11321 9.33058H4.33647C4.81209 6.02001 7.66072 3.4648 11.1013 3.4648C14.5419 3.4648 17.3906 6.02001 17.8662 9.33058H17.0894C16.8626 9.33058 16.645 9.42071 16.4845 9.58113C16.3241 9.74156 16.234 9.95915 16.234 10.186V15.441C16.234 16.3846 15.4667 17.1519 14.5231 17.1519H12.8122V16.2965H9.39043V18.8628H14.5231C16.4102 18.8628 17.9449 17.3281 17.9449 15.441C18.8884 15.441 19.6558 14.7284 19.6558 13.8525V10.3084C19.6558 5.59143 15.8182 1.75391 11.1013 1.75391Z" fill="white"/>
</g>
</svg>
