<svg width="11" height="11" viewBox="0 0 11 11" fill="none" xmlns="http://www.w3.org/2000/svg">
<g id="bxs:chat" clip-path="url(#clip0_601_432)">
<path id="Vector" d="M1.83464 8.25H2.7513V10.1205L5.08926 8.25H7.33464C7.84018 8.25 8.2513 7.83888 8.2513 7.33333V3.66667C8.2513 3.16112 7.84018 2.75 7.33464 2.75H1.83464C1.32909 2.75 0.917969 3.16112 0.917969 3.66667V7.33333C0.917969 7.83888 1.32909 8.25 1.83464 8.25Z" fill="black"/>
<path id="Vector_2" d="M9.16667 0.916016H3.66667C3.16112 0.916016 2.75 1.32714 2.75 1.83268H8.25C8.75554 1.83268 9.16667 2.24381 9.16667 2.74935V6.41602C9.67221 6.41602 10.0833 6.00489 10.0833 5.49935V1.83268C10.0833 1.32714 9.67221 0.916016 9.16667 0.916016Z" fill="black"/>
</g>
<defs>
<clipPath id="clip0_601_432">
<rect width="11" height="11" fill="white"/>
</clipPath>
</defs>
</svg>
