<svg width="24" height="24" viewBox="0 0 24 24" fill="none" xmlns="http://www.w3.org/2000/svg">
    <path
        d="M21 11.9999C21.003 13.7866 20.4715 15.5335 19.474 17.0159C18.6514 18.2428 17.5391 19.2482 16.2355 19.943C14.9319 20.6379 13.4772 21.0009 12 20.9999C10.5228 21.0009 9.06808 20.6379 7.76451 19.943C6.46093 19.2482 5.34865 18.2428 4.526 17.0159C3.74273 15.8483 3.2439 14.5134 3.06951 13.1183C2.89511 11.7232 3.05 10.3066 3.52175 8.98215C3.9935 7.65768 4.769 6.46216 5.78607 5.49142C6.80314 4.52068 8.0335 3.80173 9.37851 3.39221C10.7235 2.98268 12.1458 2.89396 13.5312 3.13317C14.9167 3.37238 16.2269 3.93286 17.3567 4.76969C18.4865 5.60651 19.4046 6.69639 20.0373 7.95197C20.67 9.20755 20.9997 10.5939 21 11.9999Z"
        stroke="black" stroke-width="2" />
    <path
        d="M13.0007 9C13.0007 9.26522 12.8954 9.51957 12.7078 9.70711C12.5203 9.89464 12.266 10 12.0007 10V12C12.7964 12 13.5594 11.6839 14.1221 11.1213C14.6847 10.5587 15.0007 9.79565 15.0007 9H13.0007ZM12.0007 10C11.7355 10 11.4812 9.89464 11.2936 9.70711C11.1061 9.51957 11.0007 9.26522 11.0007 9H9.00073C9.00073 9.79565 9.3168 10.5587 9.87941 11.1213C10.442 11.6839 11.2051 12 12.0007 12V10ZM11.0007 9C11.0007 8.73478 11.1061 8.48043 11.2936 8.29289C11.4812 8.10536 11.7355 8 12.0007 8V6C11.2051 6 10.442 6.31607 9.87941 6.87868C9.3168 7.44129 9.00073 8.20435 9.00073 9H11.0007ZM12.0007 8C12.266 8 12.5203 8.10536 12.7078 8.29289C12.8954 8.48043 13.0007 8.73478 13.0007 9H15.0007C15.0007 8.20435 14.6847 7.44129 14.1221 6.87868C13.5594 6.31607 12.7964 6 12.0007 6V8ZM5.16673 17.856L4.20773 17.571L4.05273 18.094L4.40773 18.507L5.16673 17.856ZM18.8347 17.856L19.5947 18.507L19.9487 18.094L19.7937 17.571L18.8347 17.856ZM9.00073 16H15.0007V14H9.00073V16ZM9.00073 14C7.92387 14 6.87575 14.3475 6.01221 14.9909C5.14866 15.6343 4.51581 16.5391 4.20773 17.571L6.12473 18.141C6.30999 17.5222 6.68988 16.9797 7.208 16.594C7.72611 16.2083 8.35482 16 9.00073 16V14ZM12.0007 20C10.8462 20.0013 9.70518 19.7521 8.65634 19.2695C7.60751 18.787 6.67588 18.0826 5.92573 17.205L4.40773 18.507C5.34562 19.6035 6.51012 20.4836 7.82097 21.0866C9.13181 21.6897 10.5578 22.0013 12.0007 22V20ZM15.0007 16C16.3577 16 17.5067 16.902 17.8767 18.142L19.7937 17.571C19.4857 16.5393 18.852 15.6345 17.9887 14.9912C17.1253 14.3478 16.0774 14.0002 15.0007 14V16ZM18.0757 17.205C17.3256 18.0826 16.394 18.787 15.3451 19.2695C14.2963 19.7521 13.1552 20.0013 12.0007 20V22C13.4436 22.0013 14.8697 21.6897 16.1805 21.0866C17.4913 20.4836 18.6568 19.6035 19.5947 18.507L18.0757 17.205Z"
        fill="black" />
</svg>
    