<svg width="14" height="14" viewBox="0 0 14 14" fill="none" xmlns="http://www.w3.org/2000/svg">
    <path
        d="M2.33268 10.5H3.49935V12.8806L6.47493 10.5H9.33268C9.9761 10.5 10.4993 9.97675 10.4993 9.33333V4.66667C10.4993 4.02325 9.9761 3.5 9.33268 3.5H2.33268C1.68927 3.5 1.16602 4.02325 1.16602 4.66667V9.33333C1.16602 9.97675 1.68927 10.5 2.33268 10.5Z"
        fill="black" />
    <path
        d="M11.6667 1.16602H4.66667C4.02325 1.16602 3.5 1.68927 3.5 2.33268H10.5C11.1434 2.33268 11.6667 2.85593 11.6667 3.49935V8.16602C12.3101 8.16602 12.8333 7.64277 12.8333 6.99935V2.33268C12.8333 1.68927 12.3101 1.16602 11.6667 1.16602Z"
        fill="black" />
</svg>
    