<svg width="21" height="21" viewBox="0 0 21 21" fill="none" xmlns="http://www.w3.org/2000/svg">
<path d="M3.42177 15.3978H5.1326V18.8888L9.49608 15.3978H13.6868C14.6303 15.3978 15.3976 14.6305 15.3976 13.687V6.84365C15.3976 5.90012 14.6303 5.13281 13.6868 5.13281H3.42177C2.47825 5.13281 1.71094 5.90012 1.71094 6.84365V13.687C1.71094 14.6305 2.47825 15.3978 3.42177 15.3978Z" fill="white"/>
<path d="M17.1086 1.71094H6.84365C5.90012 1.71094 5.13281 2.47825 5.13281 3.42177H15.3978C16.3413 3.42177 17.1086 4.18908 17.1086 5.1326V11.9759C18.0522 11.9759 18.8195 11.2086 18.8195 10.2651V3.42177C18.8195 2.47825 18.0522 1.71094 17.1086 1.71094Z" fill="white"/>
</svg>
