<svg width="94" height="94" viewBox="0 0 94 94" fill="none" xmlns="http://www.w3.org/2000/svg">
    <circle cx="47" cy="47" r="47" fill="white" />
    <path fill-rule="evenodd" clip-rule="evenodd"
        d="M76.2658 27.7984C77.1225 28.6553 77.6037 29.8173 77.6037 31.029C77.6037 32.2406 77.1225 33.4027 76.2658 34.2596L42.0163 68.5091C41.5637 68.9618 41.0263 69.3209 40.4349 69.5659C39.8435 69.8109 39.2096 69.9371 38.5694 69.9371C37.9293 69.9371 37.2954 69.8109 36.7039 69.5659C36.1125 69.3209 35.5752 68.9618 35.1225 68.5091L18.1059 51.4955C17.6695 51.074 17.3214 50.5698 17.0819 50.0123C16.8424 49.4548 16.7164 48.8552 16.7111 48.2485C16.7058 47.6417 16.8215 47.04 17.0512 46.4785C17.281 45.9169 17.6203 45.4067 18.0493 44.9777C18.4783 44.5486 18.9885 44.2094 19.5501 43.9796C20.1117 43.7498 20.7134 43.6342 21.3201 43.6395C21.9268 43.6448 22.5264 43.7708 23.0839 44.0103C23.6414 44.2498 24.1456 44.5979 24.5671 45.0343L38.5679 59.0351L69.8016 27.7984C70.2259 27.3738 70.7298 27.0369 71.2844 26.8071C71.839 26.5773 72.4334 26.459 73.0337 26.459C73.634 26.459 74.2285 26.5773 74.783 26.8071C75.3376 27.0369 75.8415 27.3738 76.2658 27.7984Z"
        fill="#0A1024" />
</svg>
    