
<svg width="212" height="212" viewBox="0 0 212 212" fill="none" xmlns="http://www.w3.org/2000/svg">
    <path fill-rule="evenodd" clip-rule="evenodd" d="M190.067 45.7755C192.536 48.2459 193.924 51.5961 193.924 55.0893C193.924 58.5824 192.536 61.9326 190.067 64.403L91.326 163.144C90.0211 164.449 88.4719 165.484 86.7668 166.19C85.0618 166.897 83.2343 167.26 81.3887 167.26C79.5431 167.26 77.7156 166.897 76.0105 166.19C74.3055 165.484 72.7562 164.449 71.4514 163.144L22.3928 114.094C21.1346 112.879 20.131 111.425 19.4406 109.818C18.7502 108.211 18.3868 106.482 18.3716 104.733C18.3564 102.984 18.6897 101.249 19.3521 99.6298C20.0145 98.0108 20.9927 96.54 22.2296 95.3031C23.4665 94.0662 24.9373 93.088 26.5563 92.4256C28.1753 91.7632 29.91 91.4299 31.6592 91.4451C33.4084 91.4603 35.137 91.8237 36.7442 92.5141C38.3515 93.2046 39.8051 94.2082 41.0203 95.4664L81.3843 135.83L171.43 45.7755C172.654 44.5513 174.106 43.5802 175.705 42.9177C177.304 42.2551 179.018 41.9141 180.748 41.9141C182.479 41.9141 184.193 42.2551 185.792 42.9177C187.391 43.5802 188.843 44.5513 190.067 45.7755Z" fill="white"/>
</svg>
    