<svg width="34" height="34" viewBox="0 0 34 34" fill="none" xmlns="http://www.w3.org/2000/svg">
    <g clip-path="url(#clip0_3481_2302)">
        <path
            d="M17.1142 2.85742C24.836 2.85742 31.0955 9.11687 31.0955 16.8388C31.0955 24.5607 24.836 30.8201 17.1142 30.8201C9.39226 30.8201 3.13281 24.5607 3.13281 16.8388C3.13281 9.11687 9.39226 2.85742 17.1142 2.85742ZM17.1142 5.65369C14.1477 5.65369 11.3027 6.83211 9.20511 8.92972C7.1075 11.0273 5.92908 13.8723 5.92908 16.8388C5.92908 19.8052 7.1075 22.6502 9.20511 24.7478C11.3027 26.8454 14.1477 28.0238 17.1142 28.0238C20.0806 28.0238 22.9256 26.8454 25.0232 24.7478C27.1208 22.6502 28.2992 19.8052 28.2992 16.8388C28.2992 13.8723 27.1208 11.0273 25.0232 8.92972C22.9256 6.83211 20.0806 5.65369 17.1142 5.65369ZM17.1142 8.44996C17.4566 8.45 17.7871 8.57573 18.043 8.80329C18.2989 9.03085 18.4624 9.34441 18.5025 9.68451L18.5123 9.84809V16.2599L22.297 20.0447C22.5478 20.2963 22.6934 20.6339 22.7042 20.989C22.7151 21.344 22.5903 21.6899 22.3554 21.9563C22.1205 22.2228 21.7929 22.3898 21.4393 22.4235C21.0857 22.4572 20.7325 22.355 20.4515 22.1377L20.3201 22.0216L16.1257 17.8272C15.9084 17.6098 15.7688 17.3267 15.7286 17.0219L15.716 16.8388V9.84809C15.716 9.47728 15.8633 9.12166 16.1255 8.85946C16.3877 8.59726 16.7433 8.44996 17.1142 8.44996Z"
            fill="black" />
    </g>
    <defs>
        <clipPath id="clip0_3481_2302">
            <rect width="33.5552" height="33.5552" fill="white"
                transform="translate(0.335938 0.0625)" />
        </clipPath>
    </defs>
</svg>
    