<svg width="38" height="38" viewBox="0 0 38 38" fill="none" xmlns="http://www.w3.org/2000/svg">
<path d="M33.7812 6.23122C33.9212 6.10076 34.0335 5.94344 34.1114 5.76864C34.1893 5.59384 34.2312 5.40515 34.2345 5.21381C34.2379 5.02248 34.2027 4.83242 34.1311 4.65498C34.0594 4.47754 33.9527 4.31636 33.8174 4.18104C33.6821 4.04573 33.5209 3.93905 33.3435 3.86738C33.166 3.79571 32.976 3.76052 32.7846 3.76389C32.5933 3.76727 32.4046 3.80915 32.2298 3.88703C32.055 3.96492 31.8977 4.07721 31.7672 4.21722L17.5172 18.4767L17.0992 20.8992L19.5312 20.4907L33.7812 6.23122ZM10.9242 5.69922C9.53846 5.69922 8.20946 6.24971 7.22959 7.22958C6.24971 8.20946 5.69922 9.53846 5.69922 10.9242V27.0742C5.69922 28.46 6.24971 29.789 7.22959 30.7689C8.20946 31.7487 9.53846 32.2992 10.9242 32.2992H27.0742C28.46 32.2992 29.789 31.7487 30.7689 30.7689C31.7487 29.789 32.2992 28.46 32.2992 27.0742V16.6204C32.2992 16.2425 32.1491 15.88 31.8818 15.6128C31.6146 15.3455 31.2522 15.1954 30.8742 15.1954C30.4963 15.1954 30.1338 15.3455 29.8666 15.6128C29.5994 15.88 29.4492 16.2425 29.4492 16.6204V27.0742C29.4492 28.3852 28.3852 29.4492 27.0742 29.4492H10.9242C9.61322 29.4492 8.54922 28.3852 8.54922 27.0742V10.9242C8.54922 9.61322 9.61322 8.54922 10.9242 8.54922H21.3552C21.7332 8.54922 22.0956 8.39908 22.3628 8.13184C22.6301 7.86461 22.7802 7.50215 22.7802 7.12422C22.7802 6.74628 22.6301 6.38383 22.3628 6.11659C22.0956 5.84935 21.7332 5.69922 21.3552 5.69922H10.9242Z" fill="#780000"/>
</svg>
