<svg width="25" height="28" viewBox="0 0 25 28" fill="none" xmlns="http://www.w3.org/2000/svg">
    <path
        d="M6.81423 16.928C6.43119 16.928 6.11033 16.7982 5.85167 16.5386C5.593 16.2791 5.46322 15.9582 5.46232 15.5761C5.46142 15.1939 5.5912 14.8731 5.85167 14.6135C6.11214 14.3539 6.43299 14.2242 6.81423 14.2242C7.19547 14.2242 7.51677 14.3539 7.77814 14.6135C8.03951 14.8731 8.16884 15.1939 8.16614 15.5761C8.16343 15.9582 8.03365 16.2795 7.77679 16.54C7.51992 16.8004 7.19907 16.9298 6.81423 16.928ZM12.2219 16.928C11.8388 16.928 11.518 16.7982 11.2593 16.5386C11.0006 16.2791 10.8709 15.9582 10.87 15.5761C10.8691 15.1939 10.9988 14.8731 11.2593 14.6135C11.5198 14.3539 11.8406 14.2242 12.2219 14.2242C12.6031 14.2242 12.9244 14.3539 13.1858 14.6135C13.4471 14.8731 13.5765 15.1939 13.5738 15.5761C13.5711 15.9582 13.4413 16.2795 13.1844 16.54C12.9276 16.8004 12.6067 16.9298 12.2219 16.928ZM17.6295 16.928C17.2465 16.928 16.9256 16.7982 16.6669 16.5386C16.4083 16.2791 16.2785 15.9582 16.2776 15.5761C16.2767 15.1939 16.4065 14.8731 16.6669 14.6135C16.9274 14.3539 17.2483 14.2242 17.6295 14.2242C18.0107 14.2242 18.332 14.3539 18.5934 14.6135C18.8548 14.8731 18.9841 15.1939 18.9814 15.5761C18.9787 15.9582 18.8489 16.2795 18.592 16.54C18.3352 16.8004 18.0143 16.9298 17.6295 16.928ZM2.7585 27.7432C2.01495 27.7432 1.37866 27.4787 0.849609 26.9497C0.320563 26.4206 0.0555888 25.7839 0.0546875 25.0394V6.11271C0.0546875 5.36916 0.319662 4.73286 0.849609 4.20382C1.37956 3.67477 2.01586 3.4098 2.7585 3.40889H4.11041V0.705078H6.81423V3.40889H17.6295V0.705078H20.3333V3.40889H21.6852C22.4288 3.40889 23.0655 3.67387 23.5955 4.20382C24.1254 4.73376 24.3899 5.37006 24.389 6.11271V25.0394C24.389 25.783 24.1245 26.4197 23.5955 26.9497C23.0664 27.4796 22.4297 27.7441 21.6852 27.7432H2.7585ZM2.7585 25.0394H21.6852V11.5203H2.7585V25.0394Z"
        fill="black" />
</svg>
    