<svg width="10" height="11" viewBox="0 0 10 11" fill="none" xmlns="http://www.w3.org/2000/svg">
    <g clip-path="url(#clip0_2990_169)">
        <path
            d="M8.25938 4.2076L5.02778 6.22734L1.79618 4.2076V3.3997L5.02778 5.41945L8.25938 3.3997M8.25938 2.5918H1.79618C1.3478 2.5918 0.988281 2.95131 0.988281 3.3997V8.24709C0.988281 8.46136 1.0734 8.66685 1.22491 8.81836C1.37642 8.96987 1.58191 9.05499 1.79618 9.05499H8.25938C8.47364 9.05499 8.67914 8.96987 8.83065 8.81836C8.98216 8.66685 9.06728 8.46136 9.06728 8.24709V3.3997C9.06728 3.18543 8.98216 2.97994 8.83065 2.82843C8.67914 2.67691 8.47364 2.5918 8.25938 2.5918Z"
            fill="black" />
    </g>
    <defs>
        <clipPath id="clip0_2990_169">
            <rect width="9.69479" height="9.69479" fill="white"
                transform="translate(0.181641 0.976562)" />
        </clipPath>
    </defs>
</svg>    