<svg width="20" height="21" viewBox="0 0 20 21" fill="none" xmlns="http://www.w3.org/2000/svg">
<g id="twemoji:flag-france" clip-path="url(#clip0_186_588)">
<path id="Vector" d="M19.7213 15.3713C19.7213 15.9437 19.4939 16.4927 19.0892 16.8975C18.6844 17.3023 18.1354 17.5297 17.5629 17.5297H13.2461V3.5H17.5629C18.1354 3.5 18.6844 3.7274 19.0892 4.13219C19.4939 4.53697 19.7213 5.08597 19.7213 5.65842V15.3713Z" fill="#ED2939"/>
<path id="Vector_2" d="M2.45529 3.5C1.88284 3.5 1.33384 3.7274 0.92906 4.13219C0.524279 4.53697 0.296875 5.08597 0.296875 5.65842L0.296875 15.3713C0.296875 15.9437 0.524279 16.4927 0.92906 16.8975C1.33384 17.3023 1.88284 17.5297 2.45529 17.5297H6.77212V3.5H2.45529Z" fill="#002495"/>
<path id="Vector_3" d="M6.77344 3.5H13.2487V17.5297H6.77344V3.5Z" fill="#EEEEEE"/>
</g>
<defs>
<clipPath id="clip0_186_588">
<rect width="19.4257" height="19.4257" fill="white" transform="translate(0.296875 0.800781)"/>
</clipPath>
</defs>
</svg>
