<svg width="20" height="21" viewBox="0 0 20 21" fill="none" xmlns="http://www.w3.org/2000/svg">
<g id="twemoji:flag-united-kingdom" clip-path="url(#clip0_186_548)">
<path id="Vector" d="M0.296875 5.63166V7.75824H3.33377L0.296875 5.63166ZM2.81359 17.4711H7.31173V14.3214L2.81359 17.4711ZM12.7078 14.322V17.4711H17.2054L12.7078 14.322ZM0.296875 13.1543V15.2809L3.33485 13.1543H0.296875ZM17.2064 3.44141H12.7078V6.59107L17.2064 3.44141ZM19.7226 15.2814V13.1543H16.6841L19.7226 15.2814ZM19.7226 7.75824V5.63166L16.6852 7.75824H19.7226ZM7.31173 3.44141H2.81359L7.31173 6.59107V3.44141Z" fill="#00247D"/>
<path id="Vector_2" d="M13.8637 13.1547L19.1044 16.8246C19.3603 16.5609 19.5442 16.2359 19.6386 15.8808L15.7453 13.1547H13.8637ZM7.31295 13.1547H6.15765L0.91756 16.824C1.19869 17.11 1.55915 17.3145 1.96331 17.4095L7.31295 13.6636V13.1547ZM12.709 7.75868H13.8643L19.1044 4.08938C18.8184 3.79922 18.456 3.59619 18.0592 3.50391L12.709 7.24984V7.75868ZM6.15765 7.75868L0.91756 4.08938C0.661762 4.35323 0.477683 4.67811 0.382812 5.03314L4.27606 7.75868H6.15765Z" fill="#CF1B2B"/>
<path id="Vector_3" d="M19.7226 12.0751H11.6286V17.4711H12.7078V14.322L17.2054 17.4711H17.5642C17.8509 17.4712 18.1347 17.4139 18.3989 17.3028C18.6632 17.1917 18.9026 17.029 19.1032 16.8241L13.8625 13.1543H15.7441L19.6374 15.8804C19.6875 15.6985 19.7226 15.5102 19.7226 15.3127V15.2814L16.6841 13.1543H19.7226V12.0751ZM0.296875 12.0751V13.1543H3.33485L0.296875 15.2809V15.3127C0.296875 15.9014 0.533761 16.434 0.91634 16.8236L6.15643 13.1543H7.31173V13.6631L1.96209 17.4085C2.12074 17.4463 2.28478 17.4711 2.45529 17.4711H2.81359L7.31173 14.3214V17.4711H8.39093V12.0751H0.296875ZM19.7226 5.59982C19.7229 5.03431 19.5004 4.49145 19.1032 4.08893L13.8631 7.75824H12.7078V7.24939L18.0579 3.50346C17.8963 3.46381 17.7306 3.44299 17.5642 3.44141H17.2064L12.7078 6.59107V3.44141H11.6286V8.83745H19.7226V7.75824H16.6852L19.7226 5.63166V5.59982ZM7.31173 3.44141V6.59107L2.81359 3.44141H2.45529C2.16856 3.44128 1.88469 3.4985 1.6204 3.60971C1.35611 3.72091 1.11673 3.88385 0.91634 4.08893L6.15643 7.75824H4.27484L0.381593 5.0327C0.328053 5.21709 0.299559 5.40784 0.296875 5.59982L0.296875 5.63166L3.33377 7.75824H0.296875V8.83745H8.39093V3.44141H7.31173Z" fill="#EEEEEE"/>
<path id="Vector_4" d="M11.6286 8.83745V3.44141H8.39093V8.83745H0.296875V12.0751H8.39093V17.4711H11.6286V12.0751H19.7226V8.83745H11.6286Z" fill="#CF1B2B"/>
</g>
<defs>
<clipPath id="clip0_186_548">
<rect width="19.4257" height="19.4257" fill="white" transform="translate(0.296875 0.742188)"/>
</clipPath>
</defs>
</svg>
