<svg width="22" height="20" viewBox="0 0 22 20" fill="none" xmlns="http://www.w3.org/2000/svg">
<path id="Vector" d="M15.398 0C12.5648 0 10.2653 2.09023 10.2653 4.66568C10.2653 7.24114 12.5648 9.33136 15.398 9.33136C18.2312 9.33136 20.5307 7.24114 20.5307 4.66568C20.5307 2.09023 18.2312 0 15.398 0ZM15.398 7.46509C13.694 7.46509 12.3184 6.21469 12.3184 4.66568C12.3184 3.11668 13.694 1.86627 15.398 1.86627C17.1021 1.86627 18.4776 3.11668 18.4776 4.66568C18.4776 6.21469 17.1021 7.46509 15.398 7.46509ZM18.4776 13.0639H16.4245C16.4245 11.9441 15.6546 10.9364 14.5049 10.5444L8.18147 8.39823H0V18.6627H6.1592V17.319L13.3449 19.1293L21.5572 16.7965V15.8633C21.5572 14.3143 20.1817 13.0639 18.4776 13.0639ZM4.10613 16.7965H2.05307V10.2645H4.10613V16.7965ZM13.3141 17.179L6.1592 15.3967V10.2645H7.81192L13.7863 12.2894C14.1354 12.4107 14.3715 12.7186 14.3715 13.0639C14.3715 13.0639 12.3184 13.0173 12.0104 12.9239L9.56729 12.1868L8.92058 13.9597L11.3637 14.6969C11.8873 14.8555 12.4313 14.9302 12.9857 14.9302H18.4776C18.878 14.9302 19.2372 15.1541 19.4015 15.4621L13.3141 17.179Z" fill="white"/>
</svg>
