<svg width="19" height="20" viewBox="0 0 19 20" fill="none" xmlns="http://www.w3.org/2000/svg">
<g id="material-symbols:integration-instructions-outline">
<path id="Vector" d="M7.6 12.5954L8.70833 11.4475L7.00625 9.74544L8.70833 8.04336L7.6 6.89544L4.75 9.74544L7.6 12.5954ZM11.4 12.5954L14.25 9.74544L11.4 6.89544L10.2917 8.04336L11.9937 9.74544L10.2917 11.4475L11.4 12.5954ZM3.95833 16.8704C3.52292 16.8704 3.15031 16.7155 2.8405 16.4057C2.53069 16.0959 2.37553 15.7231 2.375 15.2871V4.20378C2.375 3.76836 2.53017 3.39575 2.8405 3.08594C3.15083 2.77614 3.52344 2.62097 3.95833 2.62044H7.28333C7.45486 2.14544 7.74197 1.7628 8.14467 1.47253C8.54736 1.18225 8.99914 1.03711 9.5 1.03711C10.0014 1.03711 10.4534 1.18225 10.8561 1.47253C11.2588 1.7628 11.5457 2.14544 11.7167 2.62044H15.0417C15.4771 2.62044 15.85 2.77561 16.1603 3.08594C16.4706 3.39628 16.6255 3.76889 16.625 4.20378V15.2871C16.625 15.7225 16.4701 16.0954 16.1603 16.4057C15.8505 16.7161 15.4776 16.871 15.0417 16.8704H3.95833ZM3.95833 15.2871H15.0417V4.20378H3.95833V15.2871ZM9.5 3.61003C9.67153 3.61003 9.8135 3.55382 9.92592 3.4414C10.0383 3.32898 10.0943 3.18728 10.0938 3.01628C10.0938 2.84475 10.0375 2.70304 9.92513 2.59115C9.81271 2.47926 9.671 2.42305 9.5 2.42253C9.32847 2.42253 9.18676 2.47873 9.07488 2.59115C8.96299 2.70357 8.90678 2.84528 8.90625 3.01628C8.90625 3.1878 8.96246 3.32978 9.07488 3.44219C9.18729 3.55461 9.329 3.61055 9.5 3.61003Z" fill="white"/>
</g>
</svg>
