<svg width="68" height="68" viewBox="0 0 68 68" fill="none" xmlns="http://www.w3.org/2000/svg">
<g id="typcn:location">
<path id="Vector" d="M50.0284 15.0282C41.1771 6.32134 26.8262 6.32134 17.9749 15.0282C15.8734 17.0813 14.2035 19.5338 13.0634 22.2416C11.9233 24.9493 11.3359 27.8577 11.3359 30.7957C11.3359 33.7337 11.9233 36.642 13.0634 39.3498C14.2035 42.0575 15.8734 44.51 17.9749 46.5632L34.0002 62.3307L50.0284 46.5632C52.1299 44.51 53.7998 42.0575 54.9399 39.3498C56.0801 36.642 56.6674 33.7337 56.6674 30.7957C56.6674 27.8577 56.0801 24.9493 54.9399 22.2416C53.7998 19.5338 52.1299 17.0813 50.0284 15.0282ZM34.0002 38.2473C32.1076 38.2473 30.3311 37.5107 28.9909 36.1733C27.6642 34.8438 26.9191 33.0423 26.9191 31.164C26.9191 29.2858 27.6642 27.4842 28.9909 26.1547C30.3282 24.8173 32.1076 24.0807 34.0002 24.0807C35.8929 24.0807 37.6722 24.8173 39.0096 26.1547C40.3363 27.4842 41.0814 29.2858 41.0814 31.164C41.0814 33.0423 40.3363 34.8438 39.0096 36.1733C37.6722 37.5107 35.8929 38.2473 34.0002 38.2473Z" fill="white"/>
</g>
</svg>
