<svg width="57" height="57" viewBox="0 0 57 57" fill="none" xmlns="http://www.w3.org/2000/svg">
<g id="mdi:book-love">
<path id="Vector" d="M45.125 55.3375L43.7 54.15C38.95 49.6375 35.625 46.7875 35.625 43.225C35.625 40.375 38 38 40.85 38C42.5125 38 44.175 38.7125 45.125 39.9C46.075 38.7125 47.7375 38 49.4 38C52.25 38 54.625 40.1375 54.625 43.225C54.625 46.7875 51.3 49.6375 46.55 54.15L45.125 55.3375ZM14.25 52.25C12.9902 52.25 11.782 51.7496 10.8912 50.8588C10.0004 49.968 9.5 48.7598 9.5 47.5V9.5C9.5 6.86375 11.6137 4.75 14.25 4.75H16.625V21.375L22.5625 17.8125L28.5 21.375V4.75H42.75C44.0098 4.75 45.218 5.25044 46.1088 6.14124C46.9996 7.03204 47.5 8.24022 47.5 9.5V31.065L45.125 30.875C42.6242 30.877 40.1679 31.5365 38.0025 32.7874C35.8371 34.0383 34.0386 35.8366 32.7875 38.002C31.5365 40.1673 30.8767 42.6235 30.8745 45.1243C30.8723 47.6251 31.5277 50.0825 32.775 52.25H14.25Z" fill="white"/>
</g>
</svg>
