<svg width="21" height="21" viewBox="0 0 21 21" fill="none" xmlns="http://www.w3.org/2000/svg">
<g id="material-symbols:energy-program-saving-outline">
<path id="Vector" d="M9.83764 14.5426C10.9069 14.5426 11.816 14.1685 12.5648 13.4202C13.3136 12.672 13.6877 11.763 13.6871 10.6931V6.84358H9.83764C8.76833 6.84358 7.85956 7.21798 7.11134 7.96678C6.36311 8.71558 5.98871 9.62435 5.98814 10.6931C5.98814 11.0638 6.03804 11.4202 6.13784 11.7624C6.23764 12.1046 6.38734 12.4325 6.58695 12.7461L6.24477 13.0883C6.08794 13.2452 6.00952 13.4448 6.00952 13.6871C6.00952 13.9295 6.08794 14.1291 6.24477 14.286C6.4016 14.4428 6.60121 14.5212 6.84358 14.5212C7.08596 14.5212 7.28556 14.4428 7.44239 14.286L7.78457 13.9438C8.09823 14.1434 8.42615 14.2931 8.76833 14.3929C9.11051 14.4927 9.46694 14.5426 9.83764 14.5426ZM9.83764 12.8317C9.70932 12.8317 9.581 12.8174 9.45269 12.7889C9.32437 12.7604 9.19605 12.7248 9.06774 12.682L10.8642 10.8642C11.021 10.7073 11.0994 10.5077 11.0994 10.2654C11.0994 10.023 11.021 9.82338 10.8642 9.66655C10.7073 9.50972 10.5077 9.4313 10.2654 9.4313C10.023 9.4313 9.82338 9.50972 9.66655 9.66655L7.84873 11.463C7.80596 11.3347 7.77031 11.2063 7.7418 11.078C7.71328 10.9497 7.69903 10.8214 7.69903 10.6931C7.69903 10.0943 7.90576 9.58813 8.31922 9.17467C8.73269 8.7612 9.23883 8.55447 9.83764 8.55447H11.9762V10.6931C11.9762 11.2919 11.7695 11.798 11.3561 12.2115C10.9426 12.625 10.4364 12.8317 9.83764 12.8317ZM10.2654 19.6753L7.31408 17.3656L3.61428 16.9164L3.16517 13.2166L0.855469 10.2654L3.16517 7.31408L3.61428 3.61428L7.31408 3.16517L10.2654 0.855469L13.2166 3.16517L16.9164 3.61428L17.3656 7.31408L19.6753 10.2654L17.3656 13.2166L16.9164 16.9164L13.2166 17.3656L10.2654 19.6753ZM10.2654 17.4939L12.5323 15.7402L15.398 15.3766L15.7402 12.5323L17.4939 10.2654L15.7402 7.99843L15.3766 5.15408L12.5323 4.79051L10.2654 3.03685L7.99843 4.79051L5.13269 5.15408L4.79051 7.99843L3.03685 10.2654L4.79051 12.5323L5.15408 15.398L7.99843 15.7402L10.2654 17.4939Z" fill="white"/>
</g>
</svg>
