<svg width="21" height="21" viewBox="0 0 21 21" fill="none" xmlns="http://www.w3.org/2000/svg">
<g id="mdi:events-check">
<path id="Vector" d="M17.9644 14.5426V6.84358H5.98814V14.5426H17.9644ZM17.9644 2.56636C18.4181 2.56636 18.8533 2.74661 19.1741 3.06747C19.495 3.38832 19.6753 3.82349 19.6753 4.27725V14.5426C19.6753 14.9963 19.495 15.4315 19.1741 15.7524C18.8533 16.0732 18.4181 16.2535 17.9644 16.2535H5.98814C5.53438 16.2535 5.09921 16.0732 4.77836 15.7524C4.4575 15.4315 4.27725 14.9963 4.27725 14.5426V4.27725C4.27725 3.82349 4.4575 3.38832 4.77836 3.06747C5.09921 2.74661 5.53438 2.56636 5.98814 2.56636H6.84358V0.855469H8.55447V2.56636H15.398V0.855469H17.1089V2.56636H17.9644ZM14.996 9.46124L11.1978 13.2594L8.9052 10.9668L9.81197 10.0601L11.1978 11.4459L14.0892 8.55447L14.996 9.46124ZM2.56636 17.9644H14.5426V19.6753H2.56636C2.1126 19.6753 1.67743 19.495 1.35658 19.1741C1.03572 18.8533 0.855469 18.4181 0.855469 17.9644V7.69903H2.56636V17.9644Z" fill="white"/>
</g>
</svg>
