<svg width="21" height="21" viewBox="0 0 21 21" fill="none" xmlns="http://www.w3.org/2000/svg">
<g id="ri:notification-line" clip-path="url(#clip0_297_1242)">
<path id="Vector" d="M4.2773 15.3981H16.2535V9.43646C16.2535 6.11477 13.5726 3.42183 10.2654 3.42183C6.95826 3.42183 4.2773 6.11477 4.2773 9.43646V15.3981ZM10.2654 1.71094C14.517 1.71094 17.9644 5.1695 17.9644 9.43646V17.1089H2.56641V9.43646C2.56641 5.1695 6.01385 1.71094 10.2654 1.71094ZM8.1268 17.9644H12.404C12.404 18.5316 12.1787 19.0755 11.7776 19.4766C11.3766 19.8777 10.8326 20.103 10.2654 20.103C9.69821 20.103 9.15425 19.8777 8.75318 19.4766C8.35211 19.0755 8.1268 18.5316 8.1268 17.9644Z" fill="white"/>
</g>
<defs>
<clipPath id="clip0_297_1242">
<rect width="20.5307" height="20.5307" fill="white"/>
</clipPath>
</defs>
</svg>
