<svg width="46" height="36" viewBox="0 0 46 36" fill="none" xmlns="http://www.w3.org/2000/svg">
    <path
        d="M4.50082 12.376C4.50066 11.0707 4.82495 9.78583 5.44454 8.63696C6.06412 7.4881 6.95956 6.51126 8.05031 5.7943C9.14107 5.07735 10.3929 4.64276 11.6933 4.52963C12.9937 4.41651 14.3018 4.62839 15.5 5.14621C16.6981 5.66404 17.7488 6.47158 18.5575 7.49619C19.3661 8.52081 19.9074 9.73036 20.1327 11.0161C20.3579 12.3018 20.2601 13.6233 19.8479 14.8618C19.4357 16.1003 18.7221 17.2169 17.7713 18.1112C19.5639 18.9815 21.1203 20.2711 22.3086 21.8707C23.497 23.4702 24.2822 25.3327 24.5978 27.3002C24.6325 27.5192 24.6238 27.7428 24.5721 27.9584C24.5204 28.1739 24.4267 28.3772 24.2964 28.5566C24.1662 28.7359 24.0018 28.8879 23.8128 29.0038C23.6239 29.1196 23.4139 29.1971 23.1949 29.2318C22.976 29.2666 22.7524 29.2578 22.5368 29.2061C22.3212 29.1544 22.118 29.0607 21.9386 28.9305C21.7592 28.8002 21.6073 28.6359 21.4914 28.4469C21.3755 28.2579 21.298 28.0479 21.2633 27.829C20.9258 25.7147 19.8457 23.7899 18.2167 22.4004C16.5878 21.0108 14.5169 20.2475 12.3758 20.2475C10.2347 20.2475 8.16381 21.0108 6.53489 22.4004C4.90598 23.7899 3.82579 25.7147 3.48832 27.829C3.45345 28.0479 3.3758 28.2579 3.25981 28.4468C3.14381 28.6357 2.99173 28.8 2.81226 28.9301C2.63278 29.0603 2.42943 29.1538 2.21381 29.2054C1.99819 29.257 1.77452 29.2656 1.55557 29.2307C1.33662 29.1959 1.12669 29.1182 0.937751 29.0022C0.748813 28.8862 0.584574 28.7341 0.454409 28.5547C0.324245 28.3752 0.230704 28.1718 0.179129 27.9562C0.127554 27.7406 0.118954 27.5169 0.15382 27.298C0.468308 25.3306 1.25316 23.4683 2.44165 21.8692C3.63015 20.2702 5.18716 18.9818 6.98032 18.1135C6.19732 17.377 5.5734 16.488 5.14697 15.5012C4.72054 14.5145 4.50065 13.4509 4.50082 12.376ZM24.7508 9.00097C26.0581 9.00188 27.337 9.38226 28.4323 10.0959C29.5276 10.8096 30.3921 11.8259 30.921 13.0214C31.45 14.2169 31.6204 15.5402 31.4118 16.8307C31.2032 18.1213 30.6245 19.3235 29.7458 20.2915C31.1161 20.9703 32.3336 21.9214 33.324 23.0866C34.3143 24.2518 35.0567 25.6067 35.5058 27.0685C35.595 27.3521 35.6076 27.6543 35.5422 27.9444C35.4768 28.2345 35.3359 28.5021 35.1337 28.7201C34.9314 28.9381 34.6751 29.0987 34.3908 29.1856C34.1064 29.2725 33.8041 29.2827 33.5146 29.215C33.2251 29.148 32.9584 29.0058 32.7415 28.8027C32.5246 28.5997 32.3652 28.3429 32.2793 28.0585C31.8755 26.7543 31.1404 25.577 30.1459 24.6416C29.1514 23.7063 27.9313 23.0447 26.6048 22.7215C26.2364 22.6325 25.9086 22.4221 25.6743 22.1241C25.44 21.8262 25.3128 21.458 25.3133 21.079V20.287C25.3131 19.9728 25.4006 19.6648 25.566 19.3977C25.7314 19.1305 25.968 18.9149 26.2493 18.775C26.9314 18.4369 27.4792 17.8782 27.8037 17.1895C28.1282 16.5008 28.2103 15.7227 28.0367 14.9814C27.8632 14.2402 27.4441 13.5794 26.8475 13.1064C26.251 12.6334 25.5121 12.376 24.7508 12.376C24.3033 12.376 23.874 12.1982 23.5576 11.8817C23.2411 11.5652 23.0633 11.136 23.0633 10.6885C23.0633 10.2409 23.2411 9.8117 23.5576 9.49523C23.874 9.17876 24.3033 9.00097 24.7508 9.00097ZM12.3758 7.87597C11.7766 7.86242 11.1806 7.96873 10.623 8.18866C10.0654 8.40859 9.55735 8.7377 9.12868 9.15668C8.70001 9.57566 8.35937 10.0761 8.12675 10.6285C7.89414 11.1809 7.77423 11.7743 7.77409 12.3737C7.77393 12.9731 7.89354 13.5665 8.12588 14.1191C8.35822 14.6716 8.69861 15.1722 9.12707 15.5914C9.55553 16.0106 10.0634 16.34 10.6209 16.5602C11.1784 16.7804 11.7743 16.887 12.3736 16.8737C13.5493 16.8477 14.6682 16.3625 15.4907 15.5218C16.3131 14.6812 16.7738 13.552 16.7741 12.3759C16.7744 11.1999 16.3143 10.0705 15.4922 9.22942C14.6702 8.38837 13.5516 7.90256 12.3758 7.87597Z"
        fill="black" />
    <g clip-path="url(#clip0_3481_2275)">
        <path
            d="M39.25 27.75V24.75H37.75V27.75H34.75V29.25H37.75V32.25H39.25V29.25H42.25V27.75H39.25ZM38.5 36C36.5109 36 34.6032 35.2098 33.1967 33.8033C31.7902 32.3968 31 30.4891 31 28.5C31 26.5109 31.7902 24.6032 33.1967 23.1967C34.6032 21.7902 36.5109 21 38.5 21C40.4891 21 42.3968 21.7902 43.8033 23.1967C45.2098 24.6032 46 26.5109 46 28.5C46 30.4891 45.2098 32.3968 43.8033 33.8033C42.3968 35.2098 40.4891 36 38.5 36Z"
            fill="black" />
    </g>
    <defs>
        <clipPath id="clip0_3481_2275">
            <rect width="15" height="15" fill="white" transform="translate(31 21)" />
        </clipPath>
    </defs>
</svg>
    