<svg width="25" height="23" viewBox="0 0 25 23" fill="none" xmlns="http://www.w3.org/2000/svg">
<path id="Vector" d="M12.3184 3.73255C10.6942 3.73255 9.10641 4.17037 7.75591 4.99064C6.40541 5.81091 5.35282 6.9768 4.73126 8.34087C4.10969 9.70494 3.94706 11.2059 4.26393 12.654C4.5808 14.1021 5.36295 15.4322 6.51145 16.4763C7.65996 17.5203 9.12325 18.2312 10.7163 18.5193C12.3093 18.8073 13.9605 18.6595 15.4611 18.0945C16.9617 17.5295 18.2443 16.5726 19.1467 15.345C20.049 14.1174 20.5307 12.6741 20.5307 11.1976C20.5299 9.218 19.6644 7.31965 18.1245 5.91984C16.5845 4.52002 14.4962 3.73329 12.3184 3.73255ZM6.1592 11.1976C6.16062 10.8548 6.1967 10.5127 6.26699 10.1759L9.85472 13.4372V14.1837C9.85608 14.5793 10.0296 14.9583 10.3373 15.238C10.645 15.5178 11.062 15.6755 11.4972 15.6767V16.7405C10.0207 16.5591 8.66648 15.8977 7.68511 14.8787C6.70374 13.8597 6.16166 12.552 6.1592 11.1976ZM15.6033 14.1837H14.7821V11.9441C14.7815 11.7463 14.6948 11.5567 14.541 11.4168C14.3871 11.2769 14.1785 11.1981 13.9609 11.1976H9.0335V9.70462H10.6759C10.8936 9.70413 11.1022 9.62532 11.256 9.48543C11.4099 9.34554 11.4966 9.15594 11.4972 8.95811V7.46509H13.1396C13.5562 7.46346 13.9566 7.31798 14.2597 7.0581C14.5627 6.79822 14.7458 6.44336 14.7718 6.06539C15.6592 6.41411 16.4436 6.94829 17.0611 7.62449C17.6787 8.30069 18.1119 9.09982 18.3257 9.9569C18.5395 10.814 18.5277 11.7048 18.2913 12.557C18.055 13.4092 17.6007 14.1986 16.9655 14.8611C16.8196 14.6531 16.6182 14.4819 16.3801 14.3634C16.1419 14.245 15.8748 14.1832 15.6033 14.1837ZM13.3449 0.933136C13.3449 1.11769 13.2847 1.29811 13.1719 1.45156C13.0591 1.60501 12.8988 1.72462 12.7112 1.79524C12.5237 1.86587 12.3173 1.88435 12.1181 1.84834C11.919 1.81234 11.7361 1.72346 11.5925 1.59296C11.449 1.46246 11.3512 1.29619 11.3116 1.11518C11.272 0.934171 11.2923 0.746549 11.37 0.576041C11.4477 0.405532 11.5793 0.259796 11.7481 0.157262C11.9169 0.0547275 12.1154 0 12.3184 0C12.5907 0 12.8518 0.0983123 13.0443 0.273309C13.2368 0.448306 13.3449 0.685653 13.3449 0.933136ZM18.4776 1.86627C18.4776 2.05083 18.4174 2.23124 18.3046 2.3847C18.1918 2.53815 18.0315 2.65775 17.8439 2.72838C17.6563 2.79901 17.4499 2.81748 17.2508 2.78148C17.0517 2.74547 16.8688 2.6566 16.7252 2.5261C16.5816 2.3956 16.4839 2.22933 16.4443 2.04832C16.4047 1.86731 16.425 1.67969 16.5027 1.50918C16.5804 1.33867 16.7119 1.19293 16.8808 1.0904C17.0496 0.987864 17.248 0.933136 17.4511 0.933136C17.7233 0.933136 17.9844 1.03145 18.1769 1.20645C18.3695 1.38144 18.4776 1.61879 18.4776 1.86627ZM22.5837 5.59882C22.5837 5.78338 22.5235 5.96379 22.4107 6.11724C22.2979 6.27069 22.1376 6.3903 21.95 6.46092C21.7625 6.53155 21.5561 6.55003 21.3569 6.51402C21.1578 6.47802 20.9749 6.38915 20.8313 6.25865C20.6878 6.12814 20.59 5.96187 20.5504 5.78086C20.5108 5.59985 20.5311 5.41223 20.6088 5.24172C20.6865 5.07121 20.8181 4.92548 20.9869 4.82294C21.1557 4.72041 21.3542 4.66568 21.5572 4.66568C21.8295 4.66568 22.0906 4.76399 22.2831 4.93899C22.4756 5.11399 22.5837 5.35134 22.5837 5.59882ZM24.6368 11.1976C24.6368 11.3822 24.5766 11.5626 24.4638 11.7161C24.351 11.8695 24.1907 11.9891 24.0031 12.0597C23.8155 12.1304 23.6091 12.1488 23.41 12.1128C23.2109 12.0768 23.028 11.988 22.8844 11.8575C22.7408 11.727 22.6431 11.5607 22.6035 11.3797C22.5639 11.1987 22.5842 11.011 22.6619 10.8405C22.7396 10.67 22.8711 10.5243 23.04 10.4218C23.2088 10.3192 23.4072 10.2645 23.6103 10.2645C23.8825 10.2645 24.1436 10.3628 24.3361 10.5378C24.5287 10.7128 24.6368 10.9502 24.6368 11.1976ZM22.5837 16.7965C22.5837 16.981 22.5235 17.1614 22.4107 17.3149C22.2979 17.4683 22.1376 17.5879 21.95 17.6586C21.7625 17.7292 21.5561 17.7477 21.3569 17.7117C21.1578 17.6757 20.9749 17.5868 20.8313 17.4563C20.6878 17.3258 20.59 17.1595 20.5504 16.9785C20.5108 16.7975 20.5311 16.6099 20.6088 16.4394C20.6865 16.2689 20.8181 16.1231 20.9869 16.0206C21.1557 15.918 21.3542 15.8633 21.5572 15.8633C21.8295 15.8633 22.0906 15.9616 22.2831 16.1366C22.4756 16.3116 22.5837 16.549 22.5837 16.7965ZM18.4776 20.529C18.4776 20.7136 18.4174 20.894 18.3046 21.0474C18.1918 21.2009 18.0315 21.3205 17.8439 21.3911C17.6563 21.4617 17.4499 21.4802 17.2508 21.4442C17.0517 21.4082 16.8688 21.3193 16.7252 21.1888C16.5816 21.0583 16.4839 20.8921 16.4443 20.711C16.4047 20.53 16.425 20.3424 16.5027 20.1719C16.5804 20.0014 16.7119 19.8557 16.8808 19.7531C17.0496 19.6506 17.248 19.5959 17.4511 19.5959C17.7233 19.5959 17.9844 19.6942 18.1769 19.8692C18.3695 20.0442 18.4776 20.2815 18.4776 20.529ZM13.3449 21.4621C13.3449 21.6467 13.2847 21.8271 13.1719 21.9806C13.0591 22.134 12.8988 22.2536 12.7112 22.3242C12.5237 22.3949 12.3173 22.4133 12.1181 22.3773C11.919 22.3413 11.7361 22.2525 11.5925 22.122C11.449 21.9915 11.3512 21.8252 11.3116 21.6442C11.272 21.4632 11.2923 21.2756 11.37 21.105C11.4477 20.9345 11.5793 20.7888 11.7481 20.6863C11.9169 20.5837 12.1154 20.529 12.3184 20.529C12.5907 20.529 12.8518 20.6273 13.0443 20.8023C13.2368 20.9773 13.3449 21.2147 13.3449 21.4621ZM8.21227 20.529C8.21227 20.7136 8.15206 20.894 8.03927 21.0474C7.92647 21.2009 7.76615 21.3205 7.57857 21.3911C7.391 21.4617 7.1846 21.4802 6.98547 21.4442C6.78634 21.4082 6.60343 21.3193 6.45987 21.1888C6.3163 21.0583 6.21854 20.8921 6.17893 20.711C6.13932 20.53 6.15965 20.3424 6.23734 20.1719C6.31504 20.0014 6.44661 19.8557 6.61542 19.7531C6.78424 19.6506 6.98271 19.5959 7.18574 19.5959C7.45799 19.5959 7.71909 19.6942 7.9116 19.8692C8.10412 20.0442 8.21227 20.2815 8.21227 20.529ZM4.10613 16.7965C4.10613 16.981 4.04593 17.1614 3.93313 17.3149C3.82034 17.4683 3.66001 17.5879 3.47244 17.6586C3.28486 17.7292 3.07846 17.7477 2.87933 17.7117C2.68021 17.6757 2.4973 17.5868 2.35373 17.4563C2.21017 17.3258 2.1124 17.1595 2.07279 16.9785C2.03318 16.7975 2.05351 16.6099 2.13121 16.4394C2.2089 16.2689 2.34048 16.1231 2.50929 16.0206C2.6781 15.918 2.87657 15.8633 3.0796 15.8633C3.35186 15.8633 3.61296 15.9616 3.80547 16.1366C3.99798 16.3116 4.10613 16.549 4.10613 16.7965ZM2.05307 11.1976C2.05307 11.3822 1.99286 11.5626 1.88007 11.7161C1.76727 11.8695 1.60695 11.9891 1.41937 12.0597C1.2318 12.1304 1.0254 12.1488 0.826267 12.1128C0.627139 12.0768 0.444229 11.988 0.300665 11.8575C0.157102 11.727 0.059334 11.5607 0.019725 11.3797C-0.019884 11.1987 0.000444778 11.011 0.0781407 10.8405C0.155837 10.67 0.28741 10.5243 0.456223 10.4218C0.625035 10.3192 0.823505 10.2645 1.02653 10.2645C1.29879 10.2645 1.55989 10.3628 1.7524 10.5378C1.94492 10.7128 2.05307 10.9502 2.05307 11.1976ZM4.10613 5.59882C4.10613 5.78338 4.04593 5.96379 3.93313 6.11724C3.82034 6.27069 3.66001 6.3903 3.47244 6.46092C3.28486 6.53155 3.07846 6.55003 2.87933 6.51402C2.68021 6.47802 2.4973 6.38915 2.35373 6.25865C2.21017 6.12814 2.1124 5.96187 2.07279 5.78086C2.03318 5.59985 2.05351 5.41223 2.13121 5.24172C2.2089 5.07121 2.34048 4.92548 2.50929 4.82294C2.6781 4.72041 2.87657 4.66568 3.0796 4.66568C3.35186 4.66568 3.61296 4.76399 3.80547 4.93899C3.99798 5.11399 4.10613 5.35134 4.10613 5.59882ZM8.21227 1.86627C8.21227 2.05083 8.15206 2.23124 8.03927 2.3847C7.92647 2.53815 7.76615 2.65775 7.57857 2.72838C7.391 2.79901 7.1846 2.81748 6.98547 2.78148C6.78634 2.74547 6.60343 2.6566 6.45987 2.5261C6.3163 2.3956 6.21854 2.22933 6.17893 2.04832C6.13932 1.86731 6.15965 1.67969 6.23734 1.50918C6.31504 1.33867 6.44661 1.19293 6.61542 1.0904C6.78424 0.987864 6.98271 0.933136 7.18574 0.933136C7.45799 0.933136 7.71909 1.03145 7.9116 1.20645C8.10412 1.38144 8.21227 1.61879 8.21227 1.86627Z" fill="white"/>
</svg>
