<svg width="20" height="19" viewBox="0 0 20 19" fill="none" xmlns="http://www.w3.org/2000/svg">
    <path
        d="M1.74609 9.5C1.74609 11.1441 2.23361 12.7512 3.147 14.1182C4.06039 15.4852 5.35863 16.5506 6.87754 17.1797C8.39645 17.8089 10.0678 17.9735 11.6803 17.6528C13.2927 17.332 14.7739 16.5403 15.9364 15.3778C17.0989 14.2153 17.8906 12.7342 18.2114 11.1217C18.5321 9.50922 18.3675 7.83785 17.7383 6.31894C17.1092 4.80003 16.0438 3.5018 14.6768 2.58841C13.3098 1.67502 11.7027 1.1875 10.0586 1.1875C7.85398 1.1875 5.73966 2.06328 4.18077 3.62217C2.62187 5.18107 1.74609 7.29539 1.74609 9.5ZM5.30859 8.90625H12.5227L9.20953 5.57709L10.0586 4.75L14.8086 9.5L10.0586 14.25L9.20953 13.4027L12.5227 10.0938H5.30859V8.90625Z"
        fill="#790000" />
</svg>