<svg width="39" height="39" viewBox="0 0 39 39" fill="none" xmlns="http://www.w3.org/2000/svg">
    <path
        d="M2.4375 19.5C2.4375 22.8746 3.4382 26.1735 5.31305 28.9794C7.1879 31.7853 9.8527 33.9723 12.9705 35.2637C16.0882 36.5551 19.5189 36.893 22.8287 36.2346C26.1385 35.5763 29.1788 33.9512 31.565 31.565C33.9512 29.1788 35.5763 26.1385 36.2346 22.8287C36.893 19.5189 36.5551 16.0882 35.2637 12.9705C33.9723 9.8527 31.7853 7.1879 28.9794 5.31305C26.1735 3.4382 22.8746 2.4375 19.5 2.4375C14.9747 2.4375 10.6348 4.23515 7.43499 7.43499C4.23515 10.6348 2.4375 14.9747 2.4375 19.5ZM9.75 18.2812H24.5578L17.7572 11.4477L19.5 9.75L29.25 19.5L19.5 29.25L17.7572 27.5108L24.5578 20.7188H9.75V18.2812Z"
        fill="black" />
</svg>
    