<svg width="24" height="23" viewBox="0 0 24 23" fill="none" xmlns="http://www.w3.org/2000/svg">
    <path
        d="M1.99805 11.5C1.99805 13.4902 2.5882 15.4357 3.69388 17.0904C4.79957 18.7452 6.37111 20.0349 8.20979 20.7965C10.0485 21.5581 12.0717 21.7574 14.0236 21.3692C15.9756 20.9809 17.7685 20.0225 19.1758 18.6153C20.5831 17.208 21.5414 15.415 21.9297 13.4631C22.318 11.5112 22.1187 9.48793 21.3571 7.64925C20.5955 5.81057 19.3057 4.23902 17.651 3.13334C15.9962 2.02766 14.0507 1.4375 12.0605 1.4375C9.39181 1.4375 6.83237 2.49765 4.94528 4.38474C3.0582 6.27182 1.99805 8.83126 1.99805 11.5ZM6.31055 10.7812H15.0434L11.0327 6.75122L12.0605 5.75L17.8105 11.5L12.0605 17.25L11.0327 16.2243L15.0434 12.2188H6.31055V10.7812Z"
        fill="black" fill-opacity="0.2" />
</svg>
    
    