<svg width="31" height="28" viewBox="0 0 31 28" fill="none" xmlns="http://www.w3.org/2000/svg">
    <path d="M12.6016 27.2666C11.7766 27.2666 11.0706 26.9998 10.4836 26.4662C9.89656 25.9326 9.60256 25.2904 9.60156 24.5396H15.6016C15.6016 25.2895 15.3081 25.9317 14.7211 26.4662C14.1341 27.0007 13.4276 27.2675 12.6016 27.2666ZM0.601562 23.176V20.449H3.60156V10.9043C3.60156 9.01809 4.22656 7.34231 5.47656 5.87698C6.72656 4.41164 8.35156 3.45127 10.3516 2.99585V2.04138C10.3516 1.47325 10.5706 0.990558 11.0086 0.593318C11.4466 0.196077 11.9776 -0.00299723 12.6016 -0.00390625C13.2266 -0.00390625 13.7581 0.195168 14.1961 0.593318C14.6341 0.991467 14.8526 1.47416 14.8516 2.04138V2.99585C15.3016 3.10948 15.7391 3.24038 16.1641 3.38855C16.5891 3.53671 16.9891 3.72397 17.3641 3.95032C16.6641 4.74571 16.1331 5.62064 15.7711 6.5751C15.4091 7.52957 15.2276 8.51813 15.2266 9.54077C15.2266 11.4043 15.8081 13.0973 16.9711 14.6199C18.1341 16.1425 19.6776 17.2333 21.6016 17.8924V20.449H24.6016V23.176H0.601562ZM23.1016 14.9949V10.9043H18.6016V8.17725H23.1016V4.08667H26.1016V8.17725H30.6016V10.9043H26.1016V14.9949H23.1016Z" fill="#F70000"/>
</svg>
    