<svg width="18" height="19" viewBox="0 0 18 19" fill="none" xmlns="http://www.w3.org/2000/svg">
    <path
        d="M7.69336 9.46772C7.69336 9.84864 7.84468 10.214 8.11403 10.4833C8.38338 10.7527 8.7487 10.904 9.12963 10.904C9.51055 10.904 9.87587 10.7527 10.1452 10.4833C10.4146 10.214 10.5659 9.84864 10.5659 9.46772C10.5659 9.0868 10.4146 8.72148 10.1452 8.45213C9.87587 8.18277 9.51055 8.03145 9.12963 8.03145C8.7487 8.03145 8.38338 8.18277 8.11403 8.45213C7.84468 8.72148 7.69336 9.0868 7.69336 9.46772ZM7.69336 5.15892C7.69336 5.53984 7.84468 5.90516 8.11403 6.17452C8.38338 6.44387 8.7487 6.59519 9.12963 6.59519C9.51055 6.59519 9.87587 6.44387 10.1452 6.17452C10.4146 5.90516 10.5659 5.53984 10.5659 5.15892C10.5659 4.778 10.4146 4.41268 10.1452 4.14333C9.87587 3.87398 9.51055 3.72266 9.12963 3.72266C8.7487 3.72266 8.38338 3.87398 8.11403 4.14333C7.84468 4.41268 7.69336 4.778 7.69336 5.15892ZM7.69336 13.7765C7.69336 14.1574 7.84468 14.5228 8.11403 14.7921C8.38338 15.0615 8.7487 15.2128 9.12963 15.2128C9.51055 15.2128 9.87587 15.0615 10.1452 14.7921C10.4146 14.5228 10.5659 14.1574 10.5659 13.7765C10.5659 13.3956 10.4146 13.0303 10.1452 12.7609C9.87587 12.4916 9.51055 12.3403 9.12963 12.3403C8.7487 12.3403 8.38338 12.4916 8.11403 12.7609C7.84468 13.0303 7.69336 13.3956 7.69336 13.7765Z"
        fill="black" />
</svg>
    