<svg width="28" height="28" viewBox="0 0 28 28" fill="none" xmlns="http://www.w3.org/2000/svg">
<g id="ph:export-bold">
<path id="Vector" d="M24.0625 12.2491V22.7491C24.0625 23.3292 23.832 23.8856 23.4218 24.2959C23.0116 24.7061 22.4552 24.9366 21.875 24.9366H6.125C5.54484 24.9366 4.98844 24.7061 4.5782 24.2959C4.16797 23.8856 3.9375 23.3292 3.9375 22.7491V12.2491C3.9375 11.6689 4.16797 11.1125 4.5782 10.7023C4.98844 10.292 5.54484 10.0616 6.125 10.0616H8.75C9.0981 10.0616 9.43194 10.1999 9.67808 10.446C9.92422 10.6921 10.0625 11.026 10.0625 11.3741C10.0625 11.7222 9.92422 12.056 9.67808 12.3022C9.43194 12.5483 9.0981 12.6866 8.75 12.6866H6.5625V22.3116H21.4375V12.6866H19.25C18.9019 12.6866 18.5681 12.5483 18.3219 12.3022C18.0758 12.056 17.9375 11.7222 17.9375 11.3741C17.9375 11.026 18.0758 10.6921 18.3219 10.446C18.5681 10.1999 18.9019 10.0616 19.25 10.0616H21.875C22.4552 10.0616 23.0116 10.292 23.4218 10.7023C23.832 11.1125 24.0625 11.6689 24.0625 12.2491ZM10.5536 7.92767L12.6875 5.79596V14.8741C12.6875 15.2222 12.8258 15.556 13.0719 15.8022C13.3181 16.0483 13.6519 16.1866 14 16.1866C14.3481 16.1866 14.6819 16.0483 14.9281 15.8022C15.1742 15.556 15.3125 15.2222 15.3125 14.8741V5.79596L17.4464 7.93096C17.5685 8.05304 17.7134 8.14989 17.873 8.21596C18.0325 8.28204 18.2034 8.31605 18.3761 8.31605C18.5488 8.31605 18.7197 8.28204 18.8792 8.21596C19.0388 8.14989 19.1837 8.05304 19.3058 7.93096C19.4279 7.80887 19.5247 7.66393 19.5908 7.50441C19.6569 7.3449 19.6909 7.17393 19.6909 7.00127C19.6909 6.82861 19.6569 6.65764 19.5908 6.49813C19.5247 6.33861 19.4279 6.19367 19.3058 6.07158L14.9308 1.69658C14.8088 1.57422 14.664 1.47714 14.5044 1.41089C14.3449 1.34465 14.1738 1.31055 14.0011 1.31055C13.8284 1.31055 13.6573 1.34465 13.4978 1.41089C13.3382 1.47714 13.1933 1.57422 13.0714 1.69658L8.69641 6.07158C8.57432 6.19367 8.47747 6.33861 8.4114 6.49813C8.34532 6.65764 8.31132 6.82861 8.31132 7.00127C8.31132 7.34997 8.44984 7.68439 8.69641 7.93096C8.94298 8.17752 9.27739 8.31605 9.62609 8.31605C9.97479 8.31605 10.3092 8.17752 10.5558 7.93096L10.5536 7.92767Z" fill="black"/>
</g>
</svg>
