<svg width="10" height="11" viewBox="0 0 10 11" fill="none" xmlns="http://www.w3.org/2000/svg">
    <path
        d="M8.3157 9.46055C7.47414 9.46055 6.64106 9.27877 5.81646 8.91522C4.99186 8.55166 4.24281 8.03326 3.56929 7.36001C2.89577 6.68676 2.37737 5.93945 2.01408 5.11809C1.6508 4.29672 1.46902 3.46189 1.46875 2.6136V2.18945H3.85205L4.22571 4.2193L3.07445 5.38066C3.22257 5.64322 3.38751 5.89233 3.56929 6.12796C3.75107 6.3636 3.94631 6.58241 4.15502 6.78438C4.35026 6.97962 4.56408 7.16652 4.79649 7.34506C5.02889 7.52361 5.27961 7.69017 5.54864 7.84475L6.7201 6.6733L8.73985 7.08734V9.46055H8.3157Z"
        fill="black" />
</svg>
    