<svg width="25" height="25" viewBox="0 0 25 25" fill="none" xmlns="http://www.w3.org/2000/svg">
    <path
        d="M23.4375 12.5C23.4375 14.6632 22.796 16.7779 21.5942 18.5765C20.3924 20.3752 18.6842 21.7771 16.6856 22.6049C14.687 23.4328 12.4879 23.6494 10.3662 23.2273C8.24453 22.8053 6.29566 21.7636 4.76602 20.234C3.23638 18.7043 2.19469 16.7555 1.77266 14.6338C1.35064 12.5121 1.56723 10.313 2.39507 8.3144C3.2229 6.31583 4.62479 4.60763 6.42345 3.4058C8.22211 2.20397 10.3368 1.5625 12.5 1.5625C15.4008 1.5625 18.1828 2.71484 20.234 4.76602C22.2852 6.8172 23.4375 9.59919 23.4375 12.5ZM18.75 11.7188H9.25781L13.6172 7.33828L12.5 6.25L6.25 12.5L12.5 18.75L13.6172 17.6352L9.25781 13.2812H18.75V11.7188Z"
        fill="black" fill-opacity="0.3" />
</svg>
    