<svg width="24" height="23" viewBox="0 0 24 23" fill="none" xmlns="http://www.w3.org/2000/svg">
    <path
        d="M21.6074 11.5C21.6074 13.4902 21.0173 15.4357 19.9116 17.0904C18.8059 18.7452 17.2344 20.0349 15.3957 20.7965C13.557 21.5581 11.5338 21.7574 9.58183 21.3692C7.62989 20.9809 5.83693 20.0225 4.42966 18.6153C3.02239 17.208 2.06403 15.415 1.67577 13.4631C1.28751 11.5112 1.48678 9.48793 2.24838 7.64925C3.00999 5.81057 4.29973 4.23902 5.9545 3.13334C7.60927 2.02766 9.55475 1.4375 11.5449 1.4375C14.2137 1.4375 16.7731 2.49765 18.6602 4.38474C20.5473 6.27182 21.6074 8.83126 21.6074 11.5ZM17.2949 10.7812H8.56211L12.5727 6.75122L11.5449 5.75L5.79492 11.5L11.5449 17.25L12.5727 16.2243L8.56211 12.2188H17.2949V10.7812Z"
        fill="#04B700" />
</svg>
    