<svg width="18" height="17" viewBox="0 0 18 17" fill="none" xmlns="http://www.w3.org/2000/svg">
<path id="Vector" d="M16.8072 0.628906C17.276 0.628906 17.6558 1.00958 17.6558 1.47836V15.1775C17.6542 15.4021 17.5643 15.6171 17.4055 15.7761C17.2468 15.935 17.0318 16.0251 16.8072 16.0269H1.39548C1.17033 16.0267 0.954492 15.9371 0.795373 15.7778C0.636254 15.6185 0.546875 15.4026 0.546875 15.1775V1.47836C0.548441 1.2537 0.638322 1.03868 0.797104 0.879738C0.955885 0.720796 1.17082 0.630698 1.39548 0.628906H16.8072ZM15.9449 2.3398H2.25776V14.316H15.9449V2.3398ZM14.234 10.8942V12.6051H3.96865V10.8942H14.234ZM9.10132 4.05068V9.18335H3.96865V4.05068H9.10132ZM14.234 7.47246V9.18335H10.8122V7.47246H14.234ZM7.39043 5.76157H5.67954V7.47246H7.39043V5.76157ZM14.234 4.05068V5.76157H10.8122V4.05068H14.234Z" fill="white"/>
</svg>
