<svg width="17" height="17" viewBox="0 0 17 17" fill="none" xmlns="http://www.w3.org/2000/svg">
    <path
        d="M7.94118 2.31445C8.31944 2.3143 8.69698 2.34726 9.06949 2.41295C11.7507 2.88574 13.8549 4.98994 14.3277 7.67115C14.8004 10.3524 13.5428 13.0494 11.185 14.4107C10.1534 15.0063 9.00574 15.2916 7.86635 15.2777C6.4014 15.2598 4.95014 14.747 3.77699 13.7626L4.74791 12.6056C5.52921 13.2621 6.49376 13.662 7.51038 13.7509C8.527 13.8399 9.54635 13.6135 10.4298 13.1027C11.3139 12.593 12.0196 11.8234 12.4509 10.8985C12.8822 9.97363 13.0181 8.93834 12.8402 7.93345C12.6637 6.92832 12.1819 6.00194 11.4603 5.28033C10.7386 4.55872 9.81226 4.07689 8.80712 3.90039C8.01998 3.76106 7.21083 3.81377 6.44842 4.05406C5.68601 4.29435 4.99286 4.71511 4.42785 5.2806L5.93012 6.78277H1.90234V2.75499L3.36053 4.21324C4.56942 3.00553 6.21867 2.3154 7.94118 2.31445Z"
        fill="black" />
</svg>
    