<svg width="22" height="21" viewBox="0 0 22 21" fill="none" xmlns="http://www.w3.org/2000/svg">
<g id="ri:admin-line">
<path id="Vector" d="M11.1014 11.9762V13.6871C9.7401 13.6871 8.43459 14.2279 7.47203 15.1905C6.50946 16.153 5.9687 17.4585 5.9687 18.8198H4.25781C4.25781 17.0048 4.97883 15.2641 6.26224 13.9807C7.54566 12.6973 9.28635 11.9762 11.1014 11.9762ZM11.1014 11.1208C8.26557 11.1208 5.9687 8.82394 5.9687 5.98814C5.9687 3.15234 8.26557 0.855469 11.1014 0.855469C13.9372 0.855469 16.234 3.15234 16.234 5.98814C16.234 8.82394 13.9372 11.1208 11.1014 11.1208ZM11.1014 9.40992C12.9919 9.40992 14.5231 7.87867 14.5231 5.98814C14.5231 4.0976 12.9919 2.56636 11.1014 2.56636C9.21084 2.56636 7.67959 4.0976 7.67959 5.98814C7.67959 7.87867 9.21084 9.40992 11.1014 9.40992ZM18.8004 14.5426H19.6558V18.8198H12.8123V14.5426H13.6677V13.6871C13.6677 13.0065 13.9381 12.3537 14.4194 11.8725C14.9006 11.3912 15.5534 11.1208 16.234 11.1208C16.9147 11.1208 17.5674 11.3912 18.0487 11.8725C18.53 12.3537 18.8004 13.0065 18.8004 13.6871V14.5426ZM17.0895 14.5426V13.6871C17.0895 13.4603 16.9994 13.2427 16.8389 13.0822C16.6785 12.9218 16.4609 12.8317 16.234 12.8317C16.0072 12.8317 15.7896 12.9218 15.6291 13.0822C15.4687 13.2427 15.3786 13.4603 15.3786 13.6871V14.5426H17.0895Z" fill="white"/>
</g>
</svg>
