<svg width="11" height="11" viewBox="0 0 11 11" fill="none" xmlns="http://www.w3.org/2000/svg">
    <g clip-path="url(#clip0_2990_164)">
        <path
            d="M6.46471 9.45885H5.65681C5.44255 9.45885 5.23705 9.37374 5.08554 9.22223C4.93403 9.07072 4.84892 8.86522 4.84892 8.65096C4.84892 8.43669 4.93403 8.23119 5.08554 8.07968C5.23705 7.92817 5.44255 7.84306 5.65681 7.84306H6.46471V7.03516H5.65681C5.22828 7.03516 4.81729 7.20539 4.51427 7.50841C4.21125 7.81143 4.04102 8.22242 4.04102 8.65096C4.04102 9.07949 4.21125 9.49048 4.51427 9.7935C4.81729 10.0965 5.22828 10.2668 5.65681 10.2668H6.46471V9.45885ZM9.69631 8.65096C9.69631 9.07949 9.52608 9.49048 9.22305 9.7935C8.92003 10.0965 8.50905 10.2668 8.08051 10.2668H7.27261V9.45885H8.08051C8.29478 9.45885 8.50027 9.37374 8.65178 9.22223C8.80329 9.07072 8.88841 8.86522 8.88841 8.65096C8.88841 8.43669 8.80329 8.23119 8.65178 8.07968C8.50027 7.92817 8.29478 7.84306 8.08051 7.84306H7.27261V7.03516H8.08051C8.50905 7.03516 8.92003 7.20539 9.22305 7.50841C9.52608 7.81143 9.69631 8.22242 9.69631 8.65096Z"
            fill="black" />
        <path
            d="M6.06155 8.24774H7.67735V9.05564H6.06155V8.24774ZM3.2339 8.65169C3.23471 8.51626 3.24687 8.38114 3.27025 8.24774H1.6181V7.68221C1.6181 6.87431 3.2339 6.42997 4.0418 6.42997C4.22462 6.43242 4.40696 6.4493 4.58713 6.48046C4.91964 6.3147 5.28606 6.22828 5.6576 6.22799H7.67735V2.59244C7.67671 2.37837 7.59138 2.17325 7.44001 2.02188C7.28864 1.87051 7.08352 1.78518 6.86945 1.78454H5.18094C5.09822 1.54841 4.94417 1.34382 4.74009 1.19907C4.53602 1.05432 4.292 0.976562 4.0418 0.976562C3.7916 0.976562 3.54758 1.05432 3.3435 1.19907C3.13942 1.34382 2.98537 1.54841 2.90266 1.78454H1.21415C1.00008 1.78518 0.794957 1.87051 0.643585 2.02188C0.492212 2.17325 0.406889 2.37837 0.40625 2.59244L0.40625 8.24774C0.406889 8.46181 0.492212 8.66693 0.643585 8.8183C0.794957 8.96968 1.00008 9.055 1.21415 9.05564H3.27025C3.24687 8.92224 3.23471 8.78712 3.2339 8.65169ZM4.0418 1.78454C4.12169 1.78454 4.19979 1.80823 4.26622 1.85262C4.33265 1.89701 4.38442 1.9601 4.415 2.03391C4.44557 2.10772 4.45357 2.18894 4.43799 2.2673C4.4224 2.34566 4.38393 2.41764 4.32743 2.47413C4.27094 2.53062 4.19896 2.56909 4.1206 2.58468C4.04225 2.60027 3.96102 2.59227 3.88721 2.56169C3.8134 2.53112 3.75031 2.47934 3.70593 2.41292C3.66154 2.34649 3.63785 2.26839 3.63785 2.18849C3.63817 2.08146 3.68083 1.9789 3.75652 1.90321C3.8322 1.82752 3.93476 1.78486 4.0418 1.78454ZM4.0418 3.40034C4.28148 3.40034 4.51578 3.47142 4.71507 3.60458C4.91435 3.73774 5.06968 3.927 5.1614 4.14844C5.25312 4.36987 5.27712 4.61354 5.23036 4.84861C5.1836 5.08369 5.06818 5.29962 4.8987 5.4691C4.72922 5.63858 4.51329 5.754 4.27822 5.80076C4.04314 5.84752 3.79948 5.82352 3.57804 5.73179C3.35661 5.64007 3.16734 5.48475 3.03418 5.28546C2.90102 5.08617 2.82995 4.85187 2.82995 4.61219C2.82974 4.45299 2.86094 4.29531 2.92176 4.14819C2.98259 4.00106 3.07184 3.86738 3.18442 3.75481C3.29699 3.64224 3.43067 3.55298 3.57779 3.49216C3.72492 3.43133 3.8826 3.40013 4.0418 3.40034Z"
            fill="black" />
    </g>
    <defs>
        <clipPath id="clip0_2990_164">
            <rect width="9.69479" height="9.69479" fill="white"
                transform="translate(0.40625 0.976562)" />
        </clipPath>
    </defs>
</svg>
    