<svg width="21" height="21" viewBox="0 0 21 21" fill="none" xmlns="http://www.w3.org/2000/svg">
<g id="bx:support" clip-path="url(#clip0_298_1358)">
<path id="Vector" d="M15.7609 12.8186C15.7951 12.5449 15.8208 12.2711 15.8208 11.9803C15.8208 11.6894 15.7951 11.4157 15.7609 11.1419L17.5659 9.73045C17.7284 9.60213 17.7712 9.37116 17.6685 9.18296L15.9576 6.22313C15.9072 6.13487 15.827 6.06745 15.7314 6.03296C15.6358 5.99848 15.531 5.99917 15.4358 6.03493L13.3058 6.89037C12.8609 6.54819 12.3819 6.2659 11.8601 6.05204L11.535 3.78511C11.5208 3.68446 11.4705 3.59243 11.3933 3.52628C11.3161 3.46013 11.2175 3.42441 11.1158 3.42582H7.69405C7.48019 3.42582 7.30054 3.5798 7.27488 3.78511L6.94981 6.05204C6.42799 6.2659 5.94894 6.55675 5.50411 6.89037L3.37405 6.03493C3.32445 6.0181 3.27245 6.00943 3.22007 6.00926C3.07465 6.00926 2.92922 6.08625 2.85223 6.22313L1.14134 9.18296C1.03013 9.37116 1.08146 9.60213 1.24399 9.73045L3.04898 11.1419C3.01476 11.4157 2.9891 11.698 2.9891 11.9803C2.9891 12.2626 3.01476 12.5449 3.04898 12.8186L1.24399 14.2301C1.08146 14.3584 1.03869 14.5894 1.14134 14.7776L2.85223 17.7374C2.90266 17.8257 2.98287 17.8931 3.07849 17.9276C3.17412 17.9621 3.2789 17.9614 3.37405 17.9256L5.50411 17.0702C5.94894 17.4123 6.42799 17.6946 6.94981 17.9085L7.27488 20.1754C7.30054 20.3807 7.48019 20.5347 7.69405 20.5347H11.1158C11.3297 20.5347 11.5093 20.3807 11.535 20.1754L11.8601 17.9085C12.3819 17.6946 12.8609 17.4038 13.3058 17.0702L15.4358 17.9256C15.4871 17.9427 15.5385 17.9513 15.5898 17.9513C15.7352 17.9513 15.8807 17.8743 15.9576 17.7374L17.6685 14.7776C17.7712 14.5894 17.7284 14.3584 17.5659 14.2301L15.7609 12.8186ZM14.0671 11.3558C14.1013 11.621 14.1099 11.8006 14.1099 11.9803C14.1099 12.1599 14.0928 12.3481 14.0671 12.6047L13.9473 13.5714L14.7087 14.1702L15.6326 14.8888L15.0338 15.9239L13.9473 15.4876L13.0577 15.1283L12.2878 15.71C11.9199 15.9837 11.5692 16.1891 11.2185 16.3345L10.3117 16.7023L10.1748 17.669L10.0037 18.8238H8.80612L8.64359 17.669L8.50672 16.7023L7.59995 16.3345C7.23211 16.1805 6.88993 15.9837 6.54775 15.7271L5.7693 15.1283L4.86252 15.4961L3.77611 15.9324L3.1773 14.8973L4.10118 14.1788L4.86252 13.5799L4.74276 12.6133C4.7171 12.3481 4.69999 12.1514 4.69999 11.9803C4.69999 11.8092 4.7171 11.6124 4.74276 11.3558L4.86252 10.3891L4.10118 9.79033L3.1773 9.07176L3.77611 8.03667L4.86252 8.47294L5.75219 8.83223L6.52209 8.25053C6.88993 7.97679 7.24066 7.77148 7.59139 7.62605L8.49816 7.25821L8.63504 6.29156L8.80612 5.13671H9.99519L10.1577 6.29156L10.2946 7.25821L11.2014 7.62605C11.5692 7.78003 11.9114 7.97679 12.2536 8.23342L13.032 8.83223L13.9388 8.46439L15.0252 8.02811L15.624 9.0632L14.7087 9.79033L13.9473 10.3891L14.0671 11.3558ZM9.40494 8.55849C7.5144 8.55849 5.98316 10.0897 5.98316 11.9803C5.98316 13.8708 7.5144 15.402 9.40494 15.402C11.2955 15.402 12.8267 13.8708 12.8267 11.9803C12.8267 10.0897 11.2955 8.55849 9.40494 8.55849ZM9.40494 13.6912C8.46395 13.6912 7.69405 12.9213 7.69405 11.9803C7.69405 11.0393 8.46395 10.2694 9.40494 10.2694C10.3459 10.2694 11.1158 11.0393 11.1158 11.9803C11.1158 12.9213 10.3459 13.6912 9.40494 13.6912Z" fill="white"/>
</g>
<defs>
<clipPath id="clip0_298_1358">
<rect width="20.5307" height="20.5307" fill="white" transform="translate(0 0.183594)"/>
</clipPath>
</defs>
</svg>
