<svg width="70" height="70" viewBox="0 0 70 70" fill="none" xmlns="http://www.w3.org/2000/svg">
<path d="M62.2124 36.7822C62.4749 41.303 60.4041 45.6489 56.6999 48.303L58.9458 52.6489C59.6166 53.9614 59.7041 55.5072 59.1208 56.878C58.5666 58.2489 57.4291 59.328 56.0291 59.7947L53.7249 60.5239C52.7655 60.8471 51.7297 60.8665 50.7588 60.5794C49.788 60.2923 48.9293 59.7127 48.2999 58.9197L42.1166 51.628C39.5208 51.1905 37.0708 50.0822 34.9999 48.4197C33.5416 48.8572 32.0833 49.0905 30.6249 49.0905C28.0583 49.0905 25.4916 48.303 23.3333 46.7864C21.7874 47.253 20.2124 47.4572 18.6083 47.428C16.3041 47.4572 14.0291 46.9905 11.8999 46.1155C9.85049 45.2011 8.09932 43.7291 6.84616 41.8674C5.59299 40.0057 4.88829 37.8292 4.81242 35.5863C4.57909 33.4864 4.92909 31.3572 5.83326 29.4322C4.98742 27.2447 4.89992 24.853 5.62909 22.6364C6.70826 19.8655 8.74992 17.5614 11.2874 16.103C12.9791 11.1739 17.7333 7.87802 22.9541 8.22802C27.6208 3.85302 34.7666 3.38635 39.9583 7.14885C41.1833 6.82802 42.4666 6.65302 43.7499 6.65302C47.7166 6.56552 51.4791 8.31552 53.9583 11.4363C59.9083 12.9822 64.1666 18.2905 64.3999 24.4738C64.5458 27.7113 63.6708 30.8905 61.8916 33.603C62.0958 34.653 62.2124 35.703 62.2124 36.7822ZM47.6291 32.6697C49.2916 32.8738 50.6041 34.128 50.6041 35.7905C50.6041 36.5641 50.2968 37.3059 49.7498 37.8529C49.2028 38.3999 48.461 38.7072 47.6874 38.7072H45.8499C44.9166 41.3322 43.2833 43.6363 41.1249 45.3863C41.8541 45.6488 42.6124 45.7947 43.3708 45.9988C58.3333 45.7947 56.5833 36.6655 56.5833 36.5197C56.5058 34.5162 55.6358 32.6255 54.1644 31.2636C52.693 29.9016 50.7409 29.1799 48.7374 29.2572C47.9639 29.2572 47.222 28.9499 46.675 28.4029C46.128 27.8559 45.8208 27.1141 45.8208 26.3405C45.8208 25.567 46.128 24.8251 46.675 24.2781C47.222 23.7311 47.9639 23.4238 48.7374 23.4238C52.3249 23.5114 55.7666 24.853 58.4499 27.2155C58.5958 26.3697 58.6833 25.4947 58.6833 24.6197C58.5083 21.003 56.8749 17.853 50.3124 17.2405C46.6666 8.60718 37.4791 13.3905 37.4791 16.0739C37.3916 16.7447 38.0916 18.1739 38.2083 18.2613C38.9818 18.2613 39.7237 18.5686 40.2707 19.1156C40.8176 19.6626 41.1249 20.4045 41.1249 21.178C41.1249 22.7822 39.8124 24.0947 38.2083 24.0947C36.6624 24.0364 35.2041 23.453 34.0374 22.4613C32.6374 23.3655 31.0333 23.9197 29.3708 24.0947C27.7083 24.2405 26.3374 23.0738 26.2499 21.4697C26.1962 21.0887 26.2209 20.7007 26.3225 20.3296C26.4242 19.9585 26.6006 19.6121 26.8409 19.3117C27.0813 19.0112 27.3805 18.7631 27.7203 18.5824C28.06 18.4018 28.4331 18.2926 28.8166 18.2613C29.2833 18.203 31.5583 17.853 31.5583 16.0155C31.5583 14.0905 32.2874 12.253 33.5416 10.7947C30.8583 10.0655 27.9708 11.028 25.0541 14.5572C19.6874 13.7114 17.4999 14.4405 15.8958 20.128C13.1249 21.4988 11.6666 22.4613 11.0249 25.378C14.1749 24.7364 17.4124 24.9988 20.4166 26.1072C21.8749 26.6614 22.6916 28.2947 22.1374 29.8697C21.5833 31.3864 19.8916 32.1447 18.3749 31.5905C16.2458 30.6572 13.8541 30.5989 11.6666 31.4155C10.7333 32.203 10.7333 33.8364 10.7333 35.1197C10.7333 37.278 11.8124 39.2905 13.6499 40.4572C15.1958 41.2447 16.9166 41.653 18.6374 41.6238C18.1999 40.8655 17.8208 40.078 17.4999 39.2614C17.2703 38.512 17.3403 37.7028 17.695 37.0039C18.0498 36.3051 18.6618 35.771 19.4023 35.5141C20.1427 35.2573 20.9539 35.2975 21.6653 35.6265C22.3767 35.9554 22.9328 36.5475 23.2166 37.278C24.3833 40.603 27.3583 42.878 30.8583 43.2572C34.8541 43.053 38.4124 40.6905 40.1624 37.0447C40.8333 33.0197 44.0708 32.6697 47.6291 32.6697ZM53.4624 54.4572L51.6541 50.6655L49.5833 51.1322L52.4999 54.778L53.4624 54.4572ZM39.8999 29.3447C39.9253 28.5996 39.6643 27.8731 39.1707 27.3144C38.6771 26.7557 37.9883 26.4072 37.2458 26.3405C35.1749 26.2239 33.1624 26.9239 31.6166 28.2947C29.9541 29.9864 29.0791 32.3197 29.1666 34.6822C29.1666 35.4557 29.4739 36.1976 30.0209 36.7446C30.5678 37.2916 31.3097 37.5989 32.0833 37.5989C33.7458 37.5989 34.9999 36.2863 34.9999 34.6822C34.9999 33.8947 35.2041 33.1072 35.6708 32.4655C36.0208 32.1739 36.4583 32.028 36.9249 32.028C38.5291 32.1155 39.8999 30.9197 39.8999 29.3447Z" fill="white"/>
</svg>
