<svg width="132" height="132" viewBox="0 0 132 132" fill="none" xmlns="http://www.w3.org/2000/svg">
    <circle cx="66" cy="66" r="66" fill="#D9D9D9" />
    <circle cx="66" cy="66" r="56" fill="#929292" />
    <path
        d="M64 60C70.6274 60 76 54.6274 76 48C76 41.3726 70.6274 36 64 36C57.3726 36 52 41.3726 52 48C52 54.6274 57.3726 60 64 60Z"
        fill="white" />
    <path opacity="0.5"
        d="M88 82.5C88 89.955 88 96 64 96C40 96 40 89.955 40 82.5C40 75.045 50.746 69 64 69C77.254 69 88 75.045 88 82.5Z"
        fill="white" />
    <path
        d="M87.0511 69.4233V49.3097H92.1364V69.4233H87.0511ZM79.5369 61.9091V56.8239H99.6506V61.9091H79.5369Z"
        fill="white" />
</svg>
    