<svg width="24" height="24" viewBox="0 0 24 24" fill="none" xmlns="http://www.w3.org/2000/svg">
    <path
        d="M7.28516 5.57199C7.28516 4.54901 7.69153 3.56793 8.41489 2.84457C9.13824 2.12122 10.1193 1.71484 11.1423 1.71484C12.1653 1.71484 13.1464 2.12122 13.8697 2.84457C14.5931 3.56793 14.9994 4.54901 14.9994 5.57199V11.6783C14.5432 11.8775 14.1118 12.1292 13.7137 12.4283V5.57199C13.7137 4.89 13.4428 4.23595 12.9606 3.75371C12.4783 3.27148 11.8243 3.00056 11.1423 3.00056C10.4603 3.00056 9.80626 3.27148 9.32402 3.75371C8.84179 4.23595 8.57087 4.89 8.57087 5.57199V12.4291C8.57079 12.8146 8.65739 13.1952 8.82425 13.5427C8.99112 13.8902 9.23398 14.1958 9.53487 14.4367C9.83576 14.6777 10.187 14.848 10.5625 14.9349C10.9381 15.0218 11.3284 15.0231 11.7046 14.9388C11.5106 15.37 11.3652 15.8213 11.2709 16.2846L11.1423 16.2863C10.1193 16.2863 9.13824 15.8799 8.41489 15.1565C7.69153 14.4332 7.28516 13.4521 7.28516 12.4291V5.57199ZM11.156 18.0006H11.1423C9.66466 18.0006 8.24755 17.4136 7.2027 16.3687C6.15786 15.3239 5.57087 13.9068 5.57087 12.4291V11.7863C5.57087 11.6158 5.50314 11.4523 5.38258 11.3317C5.26202 11.2111 5.09851 11.1434 4.92801 11.1434C4.75752 11.1434 4.594 11.2111 4.47344 11.3317C4.35289 11.4523 4.28516 11.6158 4.28516 11.7863V12.4291C4.28511 14.1365 4.92202 15.7825 6.07131 17.0451C7.2206 18.3077 8.79959 19.0962 10.4994 19.2563V21.6434C10.4994 21.8139 10.5672 21.9774 10.6877 22.098C10.8083 22.2185 10.9718 22.2863 11.1423 22.2863C11.3128 22.2863 11.4763 22.2185 11.5969 22.098C11.7174 21.9774 11.7852 21.8139 11.7852 21.6434V20.3774C11.4236 19.6333 11.2099 18.8261 11.156 18.0006ZM17.5709 21.8577C16.4342 21.8577 15.3441 21.4062 14.5404 20.6024C13.7367 19.7987 13.2852 18.7086 13.2852 17.572C13.2852 16.4353 13.7367 15.3453 14.5404 14.5415C15.3441 13.7378 16.4342 13.2863 17.5709 13.2863C18.7075 13.2863 19.7976 13.7378 20.6013 14.5415C21.4051 15.3453 21.8566 16.4353 21.8566 17.572C21.8566 18.7086 21.4051 19.7987 20.6013 20.6024C19.7976 21.4062 18.7075 21.8577 17.5709 21.8577ZM17.5709 23.1434C19.0485 23.1434 20.4656 22.5564 21.5105 21.5116C22.5553 20.4667 23.1423 19.0496 23.1423 17.572C23.1423 16.0944 22.5553 14.6772 21.5105 13.6324C20.4656 12.5875 19.0485 12.0006 17.5709 12.0006C16.0932 12.0006 14.6761 12.5875 13.6313 13.6324C12.5864 14.6772 11.9994 16.0944 11.9994 17.572C11.9994 19.0496 12.5864 20.4667 13.6313 21.5116C14.6761 22.5564 16.0932 23.1434 17.5709 23.1434ZM17.5709 20.572C18.3665 20.572 19.1296 20.2559 19.6922 19.6933C20.2548 19.1307 20.5709 18.3676 20.5709 17.572C20.5709 16.7763 20.2548 16.0133 19.6922 15.4507C19.1296 14.8881 18.3665 14.572 17.5709 14.572C16.7752 14.572 16.0122 14.8881 15.4495 15.4507C14.8869 16.0133 14.5709 16.7763 14.5709 17.572C14.5709 18.3676 14.8869 19.1307 15.4495 19.6933C16.0122 20.2559 16.7752 20.572 17.5709 20.572Z"
        fill="#790000" />
</svg>
    