<svg width="21" height="21" viewBox="0 0 21 21" fill="none" xmlns="http://www.w3.org/2000/svg">
<g id="material-symbols:volunteer-activism-sharp">
<path id="Vector" d="M0.855469 18.8198H4.27725V9.40994H0.855469V18.8198ZM11.9763 18.8198L18.8198 16.2535V14.5426H11.1208L9.32437 13.901L9.62378 13.1097L11.1208 13.6872H14.5426V11.9763L7.67764 9.40994H5.98814V17.1303L11.9763 18.8198ZM13.6871 11.1208L10.137 7.65628C9.69507 7.22856 9.32095 6.75464 9.0147 6.23453C8.70845 5.71442 8.55504 5.14755 8.55447 4.53391C8.55447 3.74975 8.82907 3.08336 9.37827 2.53473C9.92746 1.98611 10.5939 1.71151 11.3774 1.71094C11.8337 1.71094 12.2614 1.80732 12.6606 2.00008C13.0598 2.19284 13.402 2.4529 13.6871 2.78025C13.9723 2.45233 14.3145 2.19198 14.7137 1.99922C15.1129 1.80646 15.5406 1.71037 15.9968 1.71094C16.781 1.71094 17.4477 1.98554 17.9969 2.53473C18.5461 3.08393 18.8204 3.75032 18.8198 4.53391C18.8198 5.14698 18.6701 5.71385 18.3707 6.23453C18.0713 6.75521 17.7006 7.22913 17.2586 7.65628L13.6871 11.1208Z" fill="white"/>
</g>
</svg>
